<svg xmlns="http://www.w3.org/2000/svg" viewBox="0 0 1087 1792" width="1087" height="1792" preserveAspectRatio="xMidYMid meet" style="width: 100%; height: 100%; transform: translate3d(0px, 0px, 0px);"><defs><clipPath id="__lottie_element_2"><rect width="1087" height="1792" x="0" y="0"></rect></clipPath><clipPath id="__lottie_element_5"><path fill="#ffffff" clip-rule="nonzero" d=" M-121.56099700927734,-107.63700103759766 C-124.19300079345703,-105.00499725341797 -124.87999725341797,-73.29000091552734 -124.87999725341797,-73.29000091552734 C-124.87999725341797,-73.29000091552734 126.12200164794922,-58.540000915527344 126.12200164794922,-58.540000915527344 C126.12200164794922,-58.540000915527344 122.03700256347656,-94.2030029296875 122.03700256347656,-96.63800048828125 C34.12300109863281,-163.38999938964844 -54.87699890136719,-156.38999938964844 -121.56099700927734,-107.63700103759766" fill-opacity="1"></path></clipPath><mask id="__lottie_element_8"><path fill="#ffffff" clip-rule="nonzero" d=" M1317,637 C1311.3330078125,585.1890258789062 1310.373046875,532.7930297851562 1309.3089599609375,480.2980041503906 C1308.2449951171875,427.8030090332031 1307.0780029296875,375.2070007324219 1301,323 C1300.3709716796875,317.5950012207031 1299.68798828125,308.2510070800781 1298.6280517578125,299.80499267578125 C1297.5679931640625,291.3590087890625 1296.133056640625,283.8110046386719 1294,282 C1291.5760498046875,279.9419860839844 1282.821044921875,278.7309875488281 1272.800048828125,278.0150146484375 C1262.779052734375,277.29901123046875 1251.490966796875,277.0780029296875 1244,277 C1179.3270263671875,276.322998046875 1114.7049560546875,275.822998046875 1050.56201171875,275.49200439453125 C986.4190063476562,275.1610107421875 922.7559814453125,275 860,275 C823.0170288085938,275 786.906982421875,276.5530090332031 751.2219848632812,277.8299865722656 C715.5380249023438,279.10699462890625 680.2789916992188,280.1059875488281 645,279 C627.260009765625,278.4429931640625 609.5430297851562,277.5920104980469 591.8690185546875,276.6809997558594 C574.1950073242188,275.7699890136719 556.5650024414062,274.7980041503906 539,274 C520.927978515625,273.1789855957031 502.9410095214844,273.9779968261719 484.96600341796875,274.9580078125 C466.9909973144531,275.93798828125 449.0270080566406,277.0989990234375 431,277 C414.66400146484375,276.9110107421875 376.2200012207031,266.15899658203125 371,273 C361.0929870605469,285.9840087890625 346.89898681640625,304.8389892578125 343,319 C333.9779968261719,351.7640075683594 337.27099609375,423.8500061035156 341,459 C344.27398681640625,489.8609924316406 341.7969970703125,525.2969970703125 342,563 C342.0480041503906,571.9569702148438 341.4849853515625,597.4849853515625 343,599 C344.05999755859375,600.0599975585938 364.45098876953125,598.1690063476562 373,598 C405.32501220703125,597.3610229492188 437.84100341796875,596 467,596 C769.0869750976562,595.9990234375 1031.52294921875,628.9219970703125 1317,637" fill-opacity="1"></path><path fill="#ffffff" clip-rule="nonzero" d=" M1240,1642 C1132.9100341796875,1727.573974609375 1031.5360107421875,1818.8719482421875 884,1864 C972.3519897460938,1862.240966796875 1043.321044921875,1829.511962890625 1102,1794 C1162.2159423828125,1757.5579833984375 1206.9749755859375,1704.989990234375 1240,1642" fill-opacity="0"></path></mask><clipPath id="__lottie_element_11"><path fill="#ffffff" clip-rule="nonzero" d=" M-147.47900390625,-151.0749969482422 C-147.47900390625,-133.88999938964844 -153.3800048828125,247.9600067138672 -153.3800048828125,247.9600067138672 C-153.3800048828125,247.9600067138672 140.3730010986328,247.9600067138672 140.3730010986328,247.9600067138672 C140.3730010986328,247.9600067138672 140.302001953125,-118.88999938964844 140.302001953125,-138.0749969482422 C45.12200164794922,-139.88999938964844 -3.877000093460083,-157.88999938964844 -147.47900390625,-151.0749969482422" fill-opacity="1"></path></clipPath><clipPath id="__lottie_element_83"><path fill="#ffffff" clip-rule="nonzero" d=" M-147.523193359375,-186.08558654785156 C-147.523193359375,-168.9005889892578 -153.3800048828125,247.9600067138672 -153.3800048828125,247.9600067138672 C-153.3800048828125,247.9600067138672 140.3730010986328,247.9600067138672 140.3730010986328,247.9600067138672 C140.3730010986328,247.9600067138672 140.25779724121094,-153.9005889892578 140.25779724121094,-173.08558654785156 C45.07780075073242,-174.9005889892578 -3.921200752258301,-192.9005889892578 -147.523193359375,-186.08558654785156" fill-opacity="1"></path></clipPath><mask id="__lottie_element_86"><path fill="#ffffff" clip-rule="nonzero" d=" M333,794 C332.7909851074219,794.260986328125 333,795.6439819335938 333,796 C332.99798583984375,917.7550048828125 318,1016.64697265625 318,1140 C318,1199.3399658203125 321.1340026855469,1259.011962890625 319,1316 C316.7699890136719,1375.5379638671875 320.51800537109375,1429.926025390625 333,1480 C392.20599365234375,1717.5179443359375 558.5079956054688,1854.594970703125 844,1866 C903.2030029296875,1868.364990234375 954.302978515625,1858.114013671875 1000,1842 C1091.6650390625,1809.676025390625 1156.5830078125,1763.6619873046875 1209,1692 C1257.10205078125,1626.238037109375 1301.7919921875,1542.64599609375 1313,1437 C1318.552001953125,1384.6729736328125 1321.47705078125,1329.7469482421875 1318,1269 C1315.9749755859375,1233.6240234375 1319.012939453125,1181.030029296875 1324,1142 C1325.0419921875,1133.842041015625 1332.333984375,1106.0970458984375 1329,1102 C1327.6829833984375,1100.3819580078125 1315.95703125,1101.6619873046875 1311,1102 C1218.8590087890625,1108.282958984375 1113.7750244140625,1121.9940185546875 1014,1115 C910.52099609375,1107.7459716796875 824.7009887695312,1080.10400390625 756,1039 C684.7009887695312,996.3419799804688 628.510986328125,945.3049926757812 560,901 C510.802001953125,869.1849975585938 454.2170104980469,839.1790161132812 396,815 C375.0119934082031,806.2830200195312 351.7510070800781,794.655029296875 334,793 C332.91400146484375,792.8989868164062 333.427001953125,793.468017578125 333,794" fill-opacity="1"></path></mask></defs><g clip-path="url(#__lottie_element_2)"><g transform="matrix(4,0,0,4,538.509033203125,993.0599975585938)" opacity="0.15" style="display: block;"><g opacity="1" transform="matrix(1,0,0,1,0,0)"><path fill="rgb(255,255,255)" fill-opacity="1" d=" M124.51000213623047,-80.13500213623047 C123.80999755859375,-91.07499694824219 123.05999755859375,-101.94499969482422 122.4000015258789,-112.8550033569336 C121.73999786376953,-123.70500183105469 121.16000366210938,-134.56500244140625 120.79000091552734,-145.40499877929688 C120.54000091552734,-152.5850067138672 120.08000183105469,-159.76499938964844 119.79000091552734,-166.94500732421875 C119.52999877929688,-173.65499877929688 119.54000091552734,-180.38499450683594 118.68000030517578,-187.06500244140625 C118.43000030517578,-189.06500244140625 117.54000091552734,-194.625 117.26000213623047,-195.2949981689453 C116.9800033569336,-195.96499633789062 117.31999969482422,-196.2949981689453 116.55999755859375,-196.2949981689453 C111.44000244140625,-196.2949981689453 116.23999786376953,-197.65499877929688 99.38999938964844,-197.23500061035156 C88.66300201416016,-196.96800231933594 77.94000244140625,-196.94200134277344 67.22000122070312,-197.15499877929688 C45.099998474121094,-197.56500244140625 22.959999084472656,-198.0449981689453 0.8399999737739563,-197.81500244140625 C-10.020000457763672,-197.69500732421875 -20.860000610351562,-196.81500244140625 -31.719999313354492,-196.7050018310547 C-42.58000183105469,-196.59500122070312 -53.380001068115234,-197.35499572753906 -64.22000122070312,-197.8249969482422 C-75.05999755859375,-198.2949981689453 -85.77999877929688,-198.0749969482422 -96.68000030517578,-197.52499389648438 C-102.04000091552734,-197.2449951171875 -110.16000366210938,-198.94500732421875 -112.37999725341797,-199.0749969482422 C-113.27999877929688,-199.0749969482422 -114.11000061035156,-196.26499938964844 -114.61000061035156,-195.40499877929688 C-115.22000122070312,-194.40499877929688 -118.12999725341797,-191.76499938964844 -119.94000244140625,-187.64500427246094 C-120.94000244140625,-185.35499572753906 -120.86000061035156,-172.71499633789062 -120.88999938964844,-165.44500732421875 C-120.88999938964844,-162.03500366210938 -120.88999938964844,-158.61500549316406 -120.6500015258789,-155.2050018310547 C-120.3499984741211,-151.11500549316406 -119.6500015258789,-147.2050018310547 -119.80000305175781,-143.03500366210938 C-119.94000244140625,-137.6750030517578 -120.51000213623047,-132.35499572753906 -120.2699966430664,-126.98500061035156 C-120.0770034790039,-122.65899658203125 -120.02400207519531,-118.33200073242188 -120.11000061035156,-114.00599670410156 C-120.11299896240234,-114.00499725341797 -120.11699676513672,-114.00599670410156 -120.12000274658203,-114.00499725341797 C-120.12000274658203,-112.74500274658203 -120.18000030517578,-111.4749984741211 -120.22000122070312,-110.20500183105469 C-120.5999984741211,-99.20500183105469 -121.94999694824219,-88.20500183105469 -122.33999633789062,-77.20500183105469 C-122.54000091552734,-71.6050033569336 -122.4800033569336,-65.98500061035156 -122.55999755859375,-60.375 C-122.62999725341797,-55.05500030517578 -123.2699966430664,-49.71500015258789 -123.13999938964844,-44.375 C-123.01000213623047,-39.03499984741211 -123.81999969482422,-33.79499816894531 -124.31999969482422,-28.53499984741211 C-124.86000061035156,-22.9950008392334 -125.31999969482422,-17.44499969482422 -125.66000366210938,-11.885000228881836 C-126.37999725341797,-1.6649999618530273 -126.2300033569336,8.414999961853027 -126.13999938964844,18.674999237060547 C-126.13999938964844,23.875 -126.4800033569336,29.05500030517578 -126.3499984741211,34.255001068115234 C-126.22000122070312,39.76499938964844 -125.79000091552734,45.255001068115234 -125.69999694824219,50.76499938964844 C-125.5199966430664,61.45500183105469 -127,72.01499938964844 -126,82.76499938964844 C-124.18000030517578,102.24500274658203 -117.44999694824219,122.06500244140625 -108.37999725341797,139.38499450683594 C-104.2750015258789,147.427001953125 -98.83000183105469,154.71099853515625 -92.27999877929688,160.9250030517578 C-86.66000366210938,166.1649932861328 -81.12999725341797,171.9250030517578 -74.5999984741211,176.0749969482422 C-68.16799926757812,180.30499267578125 -61.375,183.95899963378906 -54.29999923706055,186.9949951171875 C-44.9640007019043,190.6219940185547 -35.33100128173828,193.4320068359375 -25.510000228881836,195.39500427246094 C-15.21399974822998,197.68899536132812 -4.708000183105469,198.90899658203125 5.840000152587891,199.03500366210938 C14.970000267028809,199.03500366210938 24.3700008392334,198.7949981689453 33.2400016784668,196.4949951171875 C46.650001525878906,192.83999633789062 59.452999114990234,187.24099731445312 71.23999786376953,179.875 C77.87999725341797,175.81500244140625 86.18000030517578,168.5749969482422 90.8499984741211,162.3249969482422 C96.62000274658203,154.59500122070312 101.06999969482422,148.4149932861328 102.69999694824219,145.3249969482422 C106.20999908447266,138.625 110.04000091552734,132.2550048828125 113.05999755859375,125.32499694824219 C114.04199981689453,122.8010025024414 114.87100219726562,120.22000122070312 115.54000091552734,117.59500122070312 C116.61000061035156,113.99500274658203 117.95999908447266,110.48500061035156 119.0199966430664,106.88500213623047 C121.61000061035156,98.09500122070312 121.7699966430664,89.24500274658203 122.70999908447266,80.21499633789062 C123.20999908447266,75.44499969482422 123.95999908447266,70.75499725341797 123.79000091552734,65.95500183105469 C123.58999633789062,60.375 123.20999908447266,54.80500030517578 122.91999816894531,49.23500061035156 C122.63999938964844,43.994998931884766 123.4000015258789,38.834999084472656 123.58000183105469,33.60499954223633 C123.61799621582031,28.427000045776367 123.9520034790039,23.2549991607666 124.58000183105469,18.114999771118164 C125.46399688720703,12.87600040435791 126.00499725341797,7.585000038146973 126.19999694824219,2.2750000953674316 C126.31999969482422,-3.3350000381469727 126.3499984741211,-8.944999694824219 126.37000274658203,-14.555000305175781 C126.41999816894531,-36.404998779296875 125.91999816894531,-58.32500076293945 124.51000213623047,-80.13500213623047z"></path></g></g><g transform="matrix(4,0,0,4,538.509033203125,993.0599975585938)" opacity="0.15" style="display: block;"><g opacity="1" transform="matrix(1,0,0,1,0,0)"><path fill="rgb(255,255,255)" fill-opacity="1" d=" M94.01000213623047,-79.93499755859375 C93.30999755859375,-90.875 92.55999755859375,-101.74500274658203 91.9000015258789,-112.65499877929688 C91.23999786376953,-123.50499725341797 90.66000366210938,-134.36500549316406 90.29000091552734,-145.2050018310547 C90.04000091552734,-152.38499450683594 89.58000183105469,-159.56500244140625 89.29000091552734,-166.7449951171875 C89.02999877929688,-173.4550018310547 89.04000091552734,-180.18499755859375 88.18000030517578,-186.86500549316406 C87.93000030517578,-188.86500549316406 87.04000091552734,-194.4250030517578 86.76000213623047,-195.09500122070312 C86.4800033569336,-195.76499938964844 86.81999969482422,-196.09500122070312 86.05999755859375,-196.09500122070312 C80.94000244140625,-196.09500122070312 85.73999786376953,-197.4550018310547 68.88999938964844,-197.03500366210938 C58.16299819946289,-196.76800537109375 47.439998626708984,-196.74200439453125 36.720001220703125,-196.9550018310547 C23.81399917602539,-197.19400024414062 10.48799991607666,-197.66400146484375 10.48799991607666,-197.66400146484375 C10.48799991607666,-197.66400146484375 11.34000015258789,-166.18899536132812 11.34000015258789,-166.18899536132812 C11.34000015258789,-166.18899536132812 13.279999732971191,-133.57899475097656 13.279999732971191,-133.57899475097656 C13.279999732971191,-133.57899475097656 11.279999732971191,-109.6989974975586 11.279999732971191,-109.6989974975586 C11.279999732971191,-109.6989974975586 15.319999694824219,-82.89900207519531 15.319999694824219,-82.89900207519531 C15.319999694824219,-82.89900207519531 15.619999885559082,-20.948999404907227 15.619999885559082,-20.948999404907227 C15.619999885559082,-20.948999404907227 18.389999389648438,5.361000061035156 17.889999389648438,6.2210001945495605 C17.280000686645508,7.2210001945495605 11.5600004196167,38.05500030517578 11.5600004196167,38.05500030517578 C11.5600004196167,38.05500030517578 15.609999656677246,64.25499725341797 15.609999656677246,64.25499725341797 C15.609999656677246,64.25499725341797 13.350000381469727,78.99500274658203 13.350000381469727,78.99500274658203 C13.350000381469727,78.99500274658203 13.199999809265137,103.66500091552734 13.199999809265137,103.66500091552734 C13.199999809265137,103.66500091552734 12.989999771118164,109.84500122070312 13.229999542236328,115.21499633789062 C13.42300033569336,119.54100036621094 2.4760000705718994,133.36700439453125 2.390000104904175,137.6929931640625 C2.38700008392334,137.69400024414062 -9.119999885559082,157.19500732421875 -9.119999885559082,157.19500732421875 C-9.119999885559082,157.19500732421875 -28.719999313354492,170.4949951171875 -28.719999313354492,170.4949951171875 C-28.719999313354492,170.4949951171875 -53.33100128173828,179.6320037841797 -43.5099983215332,181.59500122070312 C-33.2140007019043,183.88900756835938 -28.70800018310547,191.60899353027344 -18.15999984741211,191.73500061035156 C-9.029999732971191,191.73500061035156 0.3700000047683716,195.4949951171875 9.239999771118164,193.19500732421875 C22.649999618530273,189.5399932861328 28.952999114990234,187.4409942626953 40.7400016784668,180.0749969482422 C47.380001068115234,176.01499938964844 55.68000030517578,168.77499389648438 60.349998474121094,162.52499389648438 C66.12000274658203,154.7949981689453 70.56999969482422,148.61500549316406 72.19999694824219,145.52499389648438 C75.70999908447266,138.8249969482422 79.54000091552734,132.4550018310547 82.55999755859375,125.5250015258789 C83.54199981689453,123.0009994506836 84.37100219726562,120.41999816894531 85.04000091552734,117.79499816894531 C86.11000061035156,114.19499969482422 87.45999908447266,110.68499755859375 88.5199966430664,107.08499908447266 C91.11000061035156,98.29499816894531 91.2699966430664,89.44499969482422 92.20999908447266,80.41500091552734 C92.70999908447266,75.6449966430664 93.45999908447266,70.95500183105469 93.29000091552734,66.15499877929688 C93.08999633789062,60.57500076293945 92.70999908447266,55.005001068115234 92.41999816894531,49.435001373291016 C92.13999938964844,44.19499969482422 92.9000015258789,39.03499984741211 93.08000183105469,33.80500030517578 C93.11799621582031,28.62700080871582 93.4520034790039,23.454999923706055 94.08000183105469,18.315000534057617 C94.96399688720703,13.076000213623047 95.50499725341797,7.784999847412109 95.69999694824219,2.4749999046325684 C95.81999969482422,-3.134999990463257 95.8499984741211,-8.744999885559082 95.87000274658203,-14.354999542236328 C95.91999816894531,-36.20500183105469 95.41999816894531,-58.125 94.01000213623047,-79.93499755859375z"></path></g></g><g mask="url(#__lottie_element_86)" style="display: none;" transform="matrix(1,0,0,1,-286,-75)" opacity="1"><rect width="1649" height="2136" fill="#eceae8"></rect></g><g clip-path="url(#__lottie_element_83)" style="display: block;" transform="matrix(4,0,0,4,538.509033203125,993.0599975585938)" opacity="1"><g opacity="1" transform="matrix(1,0,0,1,0,0)"><path fill="rgb(255,255,255)" fill-opacity="1" d=" M11.720000267028809,-117.2750015258789 C11.720000267028809,-117.2750015258789 122.4000015258789,-112.8550033569336 122.4000015258789,-112.8550033569336 C121.73999786376953,-123.70500183105469 121.16000366210938,-134.56500244140625 120.79000091552734,-145.40499877929688 C120.54000091552734,-152.5850067138672 120.08000183105469,-159.76499938964844 119.79000091552734,-166.94500732421875 C119.52999877929688,-173.65499877929688 119.54000091552734,-180.38499450683594 118.68000030517578,-187.06500244140625 C118.43000030517578,-189.06500244140625 117.54000091552734,-194.625 117.26000213623047,-195.2949981689453 C116.9800033569336,-195.96499633789062 117.31999969482422,-196.2949981689453 116.55999755859375,-196.2949981689453 C111.44000244140625,-196.2949981689453 116.23999786376953,-197.65499877929688 99.38999938964844,-197.23500061035156 C88.66300201416016,-196.96800231933594 77.94000244140625,-196.94200134277344 67.22000122070312,-197.15499877929688 C45.099998474121094,-197.56500244140625 22.959999084472656,-198.0449981689453 0.8399999737739563,-197.81500244140625 C-10.020000457763672,-197.69500732421875 -20.860000610351562,-196.81500244140625 -31.719999313354492,-196.7050018310547 C-42.58000183105469,-196.59500122070312 -53.380001068115234,-197.35499572753906 -64.22000122070312,-197.8249969482422 C-75.05999755859375,-198.2949981689453 -85.77999877929688,-198.0749969482422 -96.68000030517578,-197.52499389648438 C-102.04000091552734,-197.2449951171875 -110.16000366210938,-198.94500732421875 -112.37999725341797,-199.0749969482422 C-113.27999877929688,-199.0749969482422 -114.11000061035156,-196.26499938964844 -114.61000061035156,-195.40499877929688 C-115.22000122070312,-194.40499877929688 -118.12999725341797,-191.76499938964844 -119.94000244140625,-187.64500427246094 C-120.94000244140625,-185.35499572753906 -120.86000061035156,-172.71499633789062 -120.88999938964844,-165.44500732421875 C-120.88999938964844,-162.03500366210938 -120.88999938964844,-158.61500549316406 -120.6500015258789,-155.2050018310547 C-120.3499984741211,-151.11500549316406 -119.6500015258789,-147.2050018310547 -119.80000305175781,-143.03500366210938 C-119.94000244140625,-137.6750030517578 -120.51000213623047,-132.35499572753906 -120.2699966430664,-126.98500061035156 C-120.0770034790039,-122.6520004272461 -120.02300262451172,-118.31800079345703 -120.11000061035156,-113.98500061035156 C-76.69999694824219,-120.74500274658203 -32.279998779296875,-119.0250015258789 11.720000267028809,-117.2750015258789z"></path></g><g opacity="1" transform="matrix(1,0,0,1,0,0)"><path fill="rgb(255,212,5)" fill-opacity="1" d=" M122.4000015258789,-112.8550033569336 C122.4000015258789,-112.8550033569336 11.720000267028809,-117.2750015258789 11.720000267028809,-117.2750015258789 C-32.279998779296875,-119.0250015258789 -76.69999694824219,-120.74500274658203 -120.12000274658203,-114.00499725341797 C-120.12000274658203,-112.74500274658203 -120.18000030517578,-111.4749984741211 -120.22000122070312,-110.20500183105469 C-120.5999984741211,-99.20500183105469 -121.94999694824219,-88.20500183105469 -122.33999633789062,-77.20500183105469 C-122.54000091552734,-71.6050033569336 -122.4800033569336,-65.98500061035156 -122.55999755859375,-60.375 C-122.62999725341797,-55.05500030517578 -123.2699966430664,-49.71500015258789 -123.13999938964844,-44.375 C-123.01000213623047,-39.03499984741211 -123.81999969482422,-33.79499816894531 -124.31999969482422,-28.53499984741211 C-124.86000061035156,-22.9950008392334 -125.31999969482422,-17.44499969482422 -125.66000366210938,-11.885000228881836 C-126.37999725341797,-1.6649999618530273 -126.2300033569336,8.414999961853027 -126.13999938964844,18.674999237060547 C-126.13999938964844,23.875 -126.4800033569336,29.05500030517578 -126.3499984741211,34.255001068115234 C-126.22000122070312,39.76499938964844 -125.79000091552734,45.255001068115234 -125.69999694824219,50.76499938964844 C-125.5199966430664,61.45500183105469 -127,72.01499938964844 -126,82.76499938964844 C-124.18000030517578,102.24500274658203 -117.44999694824219,122.06500244140625 -108.37999725341797,139.38499450683594 C-104.2750015258789,147.427001953125 -98.83000183105469,154.71099853515625 -92.27999877929688,160.9250030517578 C-86.66000366210938,166.1649932861328 -81.12999725341797,171.9250030517578 -74.5999984741211,176.0749969482422 C-68.16799926757812,180.30499267578125 -61.375,183.95899963378906 -54.29999923706055,186.9949951171875 C-44.9640007019043,190.6219940185547 -35.33100128173828,193.4320068359375 -25.510000228881836,195.39500427246094 C-15.21399974822998,197.68899536132812 -4.708000183105469,198.90899658203125 5.840000152587891,199.03500366210938 C14.970000267028809,199.03500366210938 24.3700008392334,198.7949981689453 33.2400016784668,196.4949951171875 C46.650001525878906,192.83999633789062 59.452999114990234,187.24099731445312 71.23999786376953,179.875 C77.87999725341797,175.81500244140625 86.18000030517578,168.5749969482422 90.8499984741211,162.3249969482422 C96.62000274658203,154.59500122070312 101.06999969482422,148.4149932861328 102.69999694824219,145.3249969482422 C106.20999908447266,138.625 110.04000091552734,132.2550048828125 113.05999755859375,125.32499694824219 C114.04199981689453,122.8010025024414 114.87100219726562,120.22000122070312 115.54000091552734,117.59500122070312 C116.61000061035156,113.99500274658203 117.95999908447266,110.48500061035156 119.0199966430664,106.88500213623047 C121.61000061035156,98.09500122070312 121.7699966430664,89.24500274658203 122.70999908447266,80.21499633789062 C123.20999908447266,75.44499969482422 123.95999908447266,70.75499725341797 123.79000091552734,65.95500183105469 C123.58999633789062,60.375 123.20999908447266,54.80500030517578 122.91999816894531,49.23500061035156 C122.63999938964844,43.994998931884766 123.4000015258789,38.834999084472656 123.58000183105469,33.60499954223633 C123.61799621582031,28.427000045776367 123.9520034790039,23.2549991607666 124.58000183105469,18.114999771118164 C125.46399688720703,12.87600040435791 126.00499725341797,7.585000038146973 126.19999694824219,2.2750000953674316 C126.31999969482422,-3.3350000381469727 126.3499984741211,-8.944999694824219 126.37000274658203,-14.555000305175781 C126.41999816894531,-36.404998779296875 125.91999816894531,-58.32500076293945 124.51000213623047,-80.13500213623047 C123.80999755859375,-91.07499694824219 123.05999755859375,-101.94499969482422 122.4000015258789,-112.8550033569336z"></path></g></g><g style="display: none;" transform="matrix(1,0,0,1,538.5,-230.01651000976562)" opacity="0.5"><g opacity="1" transform="matrix(1,0,0,1,34.5,718.5)"><path fill="rgb(255,255,255)" fill-opacity="1" d=" M0,-18 C9.934200286865234,-18 18,-9.934200286865234 18,0 C18,9.934200286865234 9.934200286865234,18 0,18 C-9.934200286865234,18 -18,9.934200286865234 -18,0 C-18,-9.934200286865234 -9.934200286865234,-18 0,-18z"></path></g></g><g style="display: none;" transform="matrix(1,0,0,1,424.5,-230.20225524902344)" opacity="0.5"><g opacity="1" transform="matrix(1,0,0,1,34.5,718.5)"><path fill="rgb(255,255,255)" fill-opacity="1" d=" M0,-18 C9.934200286865234,-18 18,-9.934200286865234 18,0 C18,9.934200286865234 9.934200286865234,18 0,18 C-9.934200286865234,18 -18,9.934200286865234 -18,0 C-18,-9.934200286865234 -9.934200286865234,-18 0,-18z"></path></g></g><g style="display: none;" transform="matrix(1,0,0,1,720.5,-238.35704040527344)" opacity="0.5"><g opacity="1" transform="matrix(1,0,0,1,34.5,718.5)"><path fill="rgb(255,255,255)" fill-opacity="1" d=" M0,-18 C9.934200286865234,-18 18,-9.934200286865234 18,0 C18,9.934200286865234 9.934200286865234,18 0,18 C-9.934200286865234,18 -18,9.934200286865234 -18,0 C-18,-9.934200286865234 -9.934200286865234,-18 0,-18z"></path></g></g><g style="display: none;" transform="matrix(1,0,0,1,228.5,-314.4499206542969)" opacity="0.5"><g opacity="1" transform="matrix(1,0,0,1,34.5,718.5)"><path fill="rgb(255,255,255)" fill-opacity="1" d=" M0,-18 C9.934200286865234,-18 18,-9.934200286865234 18,0 C18,9.934200286865234 9.934200286865234,18 0,18 C-9.934200286865234,18 -18,9.934200286865234 -18,0 C-18,-9.934200286865234 -9.934200286865234,-18 0,-18z"></path></g></g><g style="display: none;" transform="matrix(1,0,0,1,228.5,-314.6047058105469)" opacity="0.5"><g opacity="1" transform="matrix(1,0,0,1,34.5,718.5)"><path fill="rgb(255,255,255)" fill-opacity="1" d=" M0,-18 C9.934200286865234,-18 18,-9.934200286865234 18,0 C18,9.934200286865234 9.934200286865234,18 0,18 C-9.934200286865234,18 -18,9.934200286865234 -18,0 C-18,-9.934200286865234 -9.934200286865234,-18 0,-18z"></path></g></g><g style="display: none;" transform="matrix(1,0,0,1,538.5,-230.6666259765625)" opacity="0.5"><g opacity="1" transform="matrix(1,0,0,1,34.5,718.5)"><path fill="rgb(255,255,255)" fill-opacity="1" d=" M0,-18 C9.934200286865234,-18 18,-9.934200286865234 18,0 C18,9.934200286865234 9.934200286865234,18 0,18 C-9.934200286865234,18 -18,9.934200286865234 -18,0 C-18,-9.934200286865234 -9.934200286865234,-18 0,-18z"></path></g></g><g style="display: none;" transform="matrix(1,0,0,1,720.5,-237.15347290039062)" opacity="0.5"><g opacity="1" transform="matrix(1,0,0,1,34.5,718.5)"><path fill="rgb(255,255,255)" fill-opacity="1" d=" M0,-18 C9.934200286865234,-18 18,-9.934200286865234 18,0 C18,9.934200286865234 9.934200286865234,18 0,18 C-9.934200286865234,18 -18,9.934200286865234 -18,0 C-18,-9.934200286865234 -9.934200286865234,-18 0,-18z"></path></g></g><g style="display: none;" transform="matrix(1,0,0,1,838.5,-230.9740447998047)" opacity="0.5"><g opacity="1" transform="matrix(1,0,0,1,34.5,718.5)"><path fill="rgb(255,255,255)" fill-opacity="1" d=" M0,-18 C9.934200286865234,-18 18,-9.934200286865234 18,0 C18,9.934200286865234 9.934200286865234,18 0,18 C-9.934200286865234,18 -18,9.934200286865234 -18,0 C-18,-9.934200286865234 -9.934200286865234,-18 0,-18z"></path></g></g><g style="display: block;" transform="matrix(1,0,0,1,720.5,-221.6217498779297)" opacity="0.5"><g opacity="1" transform="matrix(1,0,0,1,34.5,718.5)"><path fill="rgb(255,255,255)" fill-opacity="1" d=" M0,-18 C9.934200286865234,-18 18,-9.934200286865234 18,0 C18,9.934200286865234 9.934200286865234,18 0,18 C-9.934200286865234,18 -18,9.934200286865234 -18,0 C-18,-9.934200286865234 -9.934200286865234,-18 0,-18z"></path></g></g><g style="display: block;" transform="matrix(1,0,0,1,132.5,-102.70486450195312)" opacity="0.5"><g opacity="1" transform="matrix(1,0,0,1,34.5,718.5)"><path fill="rgb(255,255,255)" fill-opacity="1" d=" M0,-18 C9.934200286865234,-18 18,-9.934200286865234 18,0 C18,9.934200286865234 9.934200286865234,18 0,18 C-9.934200286865234,18 -18,9.934200286865234 -18,0 C-18,-9.934200286865234 -9.934200286865234,-18 0,-18z"></path></g></g><g style="display: block;" transform="matrix(1,0,0,1,228.5,-44.9037971496582)" opacity="0.5"><g opacity="1" transform="matrix(1,0,0,1,34.5,718.5)"><path fill="rgb(255,255,255)" fill-opacity="1" d=" M0,-18 C9.934200286865234,-18 18,-9.934200286865234 18,0 C18,9.934200286865234 9.934200286865234,18 0,18 C-9.934200286865234,18 -18,9.934200286865234 -18,0 C-18,-9.934200286865234 -9.934200286865234,-18 0,-18z"></path></g></g><g style="display: block;" transform="matrix(1,0,0,1,538.5,102.27568817138672)" opacity="0.5"><g opacity="1" transform="matrix(1,0,0,1,34.5,718.5)"><path fill="rgb(255,255,255)" fill-opacity="1" d=" M0,-18 C9.934200286865234,-18 18,-9.934200286865234 18,0 C18,9.934200286865234 9.934200286865234,18 0,18 C-9.934200286865234,18 -18,9.934200286865234 -18,0 C-18,-9.934200286865234 -9.934200286865234,-18 0,-18z"></path></g></g><g style="display: block;" transform="matrix(1,0,0,1,720.5,189.044921875)" opacity="0.5"><g opacity="1" transform="matrix(1,0,0,1,34.5,718.5)"><path fill="rgb(255,255,255)" fill-opacity="1" d=" M0,-18 C9.934200286865234,-18 18,-9.934200286865234 18,0 C18,9.934200286865234 9.934200286865234,18 0,18 C-9.934200286865234,18 -18,9.934200286865234 -18,0 C-18,-9.934200286865234 -9.934200286865234,-18 0,-18z"></path></g></g><g style="display: block;" transform="matrix(1,0,0,1,424.5,291.81414794921875)" opacity="0.5"><g opacity="1" transform="matrix(1,0,0,1,34.5,718.5)"><path fill="rgb(255,255,255)" fill-opacity="1" d=" M0,-18 C9.934200286865234,-18 18,-9.934200286865234 18,0 C18,9.934200286865234 9.934200286865234,18 0,18 C-9.934200286865234,18 -18,9.934200286865234 -18,0 C-18,-9.934200286865234 -9.934200286865234,-18 0,-18z"></path></g></g><g style="display: block;" transform="matrix(1,0,0,1,720.5,441.76287841796875)" opacity="0.5"><g opacity="1" transform="matrix(1,0,0,1,34.5,718.5)"><path fill="rgb(255,255,255)" fill-opacity="1" d=" M0,-18 C9.934200286865234,-18 18,-9.934200286865234 18,0 C18,9.934200286865234 9.934200286865234,18 0,18 C-9.934200286865234,18 -18,9.934200286865234 -18,0 C-18,-9.934200286865234 -9.934200286865234,-18 0,-18z"></path></g></g><g style="display: block;" transform="matrix(1,0,0,1,228.5,460.5321044921875)" opacity="0.5"><g opacity="1" transform="matrix(1,0,0,1,34.5,718.5)"><path fill="rgb(255,255,255)" fill-opacity="1" d=" M0,-18 C9.934200286865234,-18 18,-9.934200286865234 18,0 C18,9.934200286865234 9.934200286865234,18 0,18 C-9.934200286865234,18 -18,9.934200286865234 -18,0 C-18,-9.934200286865234 -9.934200286865234,-18 0,-18z"></path></g></g><g style="display: block;" transform="matrix(1,0,0,1,228.5,618.4808349609375)" opacity="0.5"><g opacity="1" transform="matrix(1,0,0,1,34.5,718.5)"><path fill="rgb(255,255,255)" fill-opacity="1" d=" M0,-18 C9.934200286865234,-18 18,-9.934200286865234 18,0 C18,9.934200286865234 9.934200286865234,18 0,18 C-9.934200286865234,18 -18,9.934200286865234 -18,0 C-18,-9.934200286865234 -9.934200286865234,-18 0,-18z"></path></g></g><g style="display: block;" transform="matrix(1,0,0,1,538.5,765.6602783203125)" opacity="0.5"><g opacity="1" transform="matrix(1,0,0,1,34.5,718.5)"><path fill="rgb(255,255,255)" fill-opacity="1" d=" M0,-18 C9.934200286865234,-18 18,-9.934200286865234 18,0 C18,9.934200286865234 9.934200286865234,18 0,18 C-9.934200286865234,18 -18,9.934200286865234 -18,0 C-18,-9.934200286865234 -9.934200286865234,-18 0,-18z"></path></g></g><g style="display: block;" transform="matrix(1,0,0,1,720.5,820.8397827148438)" opacity="0.5"><g opacity="1" transform="matrix(1,0,0,1,34.5,718.5)"><path fill="rgb(255,255,255)" fill-opacity="1" d=" M0,-18 C9.934200286865234,-18 18,-9.934200286865234 18,0 C18,9.934200286865234 9.934200286865234,18 0,18 C-9.934200286865234,18 -18,9.934200286865234 -18,0 C-18,-9.934200286865234 -9.934200286865234,-18 0,-18z"></path></g></g><g style="display: block;" transform="matrix(1,0,0,1,838.5,746.7955932617188)" opacity="0.5"><g opacity="1" transform="matrix(1,0,0,1,34.5,718.5)"><path fill="rgb(255,255,255)" fill-opacity="1" d=" M0,-18 C9.934200286865234,-18 18,-9.934200286865234 18,0 C18,9.934200286865234 9.934200286865234,18 0,18 C-9.934200286865234,18 -18,9.934200286865234 -18,0 C-18,-9.934200286865234 -9.934200286865234,-18 0,-18z"></path></g></g><g style="display: none;" transform="matrix(1,0,0,1,720.5,-233.46568298339844)" opacity="0.5"><g opacity="1" transform="matrix(1,0,0,1,34.5,718.5)"><path fill="rgb(255,255,255)" fill-opacity="1" d=" M0,-18 C9.934200286865234,-18 18,-9.934200286865234 18,0 C18,9.934200286865234 9.934200286865234,18 0,18 C-9.934200286865234,18 -18,9.934200286865234 -18,0 C-18,-9.934200286865234 -9.934200286865234,-18 0,-18z"></path></g></g><g style="display: none;" transform="matrix(1,0,0,1,132.5,-311.0984802246094)" opacity="0.5"><g opacity="1" transform="matrix(1,0,0,1,34.5,718.5)"><path fill="rgb(255,255,255)" fill-opacity="1" d=" M0,-18 C9.934200286865234,-18 18,-9.934200286865234 18,0 C18,9.934200286865234 9.934200286865234,18 0,18 C-9.934200286865234,18 -18,9.934200286865234 -18,0 C-18,-9.934200286865234 -9.934200286865234,-18 0,-18z"></path></g></g><g style="display: none;" transform="matrix(1,0,0,1,228.5,-309.7133483886719)" opacity="0.5"><g opacity="1" transform="matrix(1,0,0,1,34.5,718.5)"><path fill="rgb(255,255,255)" fill-opacity="1" d=" M0,-18 C9.934200286865234,-18 18,-9.934200286865234 18,0 C18,9.934200286865234 9.934200286865234,18 0,18 C-9.934200286865234,18 -18,9.934200286865234 -18,0 C-18,-9.934200286865234 -9.934200286865234,-18 0,-18z"></path></g></g><g clip-path="url(#__lottie_element_11)" style="display: block;" transform="matrix(4,0,0,4,538.509033203125,993.0599975585938)" opacity="1"><g opacity="1" transform="matrix(1,0,0,1,0,0)"><path fill="rgb(1,1,1)" fill-opacity="1" d=" M-2.680000066757202,-98.4749984741211 C-2.680000066757202,-97.71499633789062 -2.5899999141693115,-96.96499633789062 -2.569999933242798,-96.20500183105469 C-2.569999933242798,-94.48500061035156 -2.369999885559082,-89.01499938964844 -2.3399999141693115,-87.29499816894531 C-2.13700008392334,-85.75499725341797 -3.1440000534057617,-84.31400299072266 -4.659999847412109,-83.9749984741211 C-5.704999923706055,-83.69499969482422 -6.804999828338623,-83.69499969482422 -7.849999904632568,-83.9749984741211 C-9.27299976348877,-84.4729995727539 -10.269000053405762,-85.76200103759766 -10.390000343322754,-87.26499938964844 C-10.520000457763672,-88.9749984741211 -10.890000343322754,-100.59500122070312 -10.84000015258789,-102.83499908447266 C-10.760000228881836,-106.26499938964844 -11.039999961853027,-109.70500183105469 -11.25,-113.13500213623047 C-11.550000190734863,-117.86499786376953 -11.920000076293945,-122.57499694824219 -12.25,-127.29499816894531 C-12.25,-127.6449966430664 -12.25,-127.99500274658203 -12.319999694824219,-128.2949981689453 C-12.880000114440918,-131.52499389648438 -9.6899995803833,-134.43499755859375 -7.039999961853027,-134.2949981689453 C-2.7699999809265137,-134.09500122070312 0.49000000953674316,-131.93499755859375 2.9600000381469727,-128.22500610351562 C4.613999843597412,-125.78199768066406 5.690999984741211,-122.99500274658203 6.110000133514404,-120.07499694824219 C6.668000221252441,-116.84600067138672 6.065000057220459,-113.52300262451172 4.409999847412109,-110.69499969482422 C4.13700008392334,-110.2750015258789 3.88700008392334,-109.84100341796875 3.6600000858306885,-109.3949966430664 C2.9100000858306885,-108.12100219726562 2.9100000858306885,-106.53900146484375 3.6600000858306885,-105.26499938964844 C4.130000114440918,-104.48500061035156 4.400000095367432,-103.55500030517578 4.829999923706055,-102.74500274658203 C5.75,-101.06500244140625 6.489999771118164,-99.28500366210938 7.579999923706055,-97.68499755859375 C9.048999786376953,-95.43199920654297 10.383999824523926,-93.09400177001953 11.579999923706055,-90.68499755859375 C12.029999732971191,-89.77200317382812 12.343000411987305,-88.79900360107422 12.510000228881836,-87.79499816894531 C12.75,-86.68699645996094 12.300000190734863,-85.54299926757812 11.369999885559082,-84.8949966430664 C9.449000358581543,-83.30899810791016 6.60699987411499,-83.58100128173828 5.020999908447266,-85.50199890136719 C4.968999862670898,-85.56500244140625 4.919000148773193,-85.62899780273438 4.869999885559082,-85.69499969482422 C4.570000171661377,-86.0979995727539 4.298999786376953,-86.52300262451172 4.059999942779541,-86.96499633789062 C2.059999942779541,-90.625 -0.28999999165534973,-94.04499816894531 -1.7899999618530273,-98.0250015258789 C-1.8799999952316284,-98.26499938964844 -2,-98.48500061035156 -2.0999999046325684,-98.70500183105469 C-2.0999999046325684,-98.70500183105469 -2.680000066757202,-98.4749984741211 -2.680000066757202,-98.4749984741211z M-5.820000171661377,-128.90499877929688 C-7.820000171661377,-127.20500183105469 -6.010000228881836,-109.28500366210938 -4.21999979019165,-109.07499694824219 C-2.430000066757202,-108.86499786376953 -0.5400000214576721,-113.76499938964844 -0.5199999809265137,-115.93499755859375 C-0.5199999809265137,-117.34500122070312 -0.38999998569488525,-118.93499755859375 -0.4399999976158142,-120.33499908447266 C-0.5600000023841858,-123.32499694824219 -4.25,-129.44500732421875 -5.820000171661377,-128.90499877929688z"></path></g><g opacity="1" transform="matrix(1,0,0,1,0,0)"><path fill="rgb(1,1,1)" fill-opacity="1" d=" M-31.90999984741211,-7.465000152587891 C-32.11000061035156,-8.28499984741211 -33.689998626708984,-13.6850004196167 -33.90999984741211,-14.46500015258789 C-34.66999816894531,-17.325000762939453 -37.150001525878906,-28.905000686645508 -37.7599983215332,-32.845001220703125 C-37.869998931884766,-33.51499938964844 -37.97999954223633,-34.185001373291016 -38.119998931884766,-34.845001220703125 C-38.47999954223633,-36.584999084472656 -38.81999969482422,-38.334999084472656 -39.22999954223633,-40.064998626708984 C-39.81999969482422,-42.525001525878906 -40.43000030517578,-44.98500061035156 -41.11000061035156,-47.42499923706055 C-41.29899978637695,-48.40700149536133 -41.88100051879883,-49.27000045776367 -42.720001220703125,-49.814998626708984 C-44.05699920654297,-50.60900115966797 -45.61199951171875,-50.95899963378906 -47.15999984741211,-50.814998626708984 C-48.7400016784668,-50.6349983215332 -50.86000061035156,-48.70500183105469 -51.58000183105469,-46.814998626708984 C-52.29999923706055,-44.92499923706055 -54.380001068115234,-31.075000762939453 -54.380001068115234,-31.075000762939453 C-54.72999954223633,-28.924999237060547 -55.380001068115234,-18.71500015258789 -55.779998779296875,-16.024999618530273 C-56.20000076293945,-13.024999618530273 -56.84000015258789,-6.914999961853027 -56.779998779296875,-6.90500020980835 C-56.86600112915039,-6.242000102996826 -56.90999984741211,-5.573999881744385 -56.90999984741211,-4.90500020980835 C-56.8650016784668,-4.150000095367432 -56.75400161743164,-3.4010000228881836 -56.58000183105469,-2.6649999618530273 C-56.46799850463867,-2.0950000286102295 -56.05400085449219,-1.63100004196167 -55.5,-1.4550000429153442 C-54.494998931884766,-1.034999966621399 -53.3650016784668,-1.034999966621399 -52.36000061035156,-1.4550000429153442 C-50.547000885009766,-2.2780001163482666 -49.38199996948242,-4.084000110626221 -49.380001068115234,-6.074999809265137 C-49.220001220703125,-8.53499984741211 -48.97999954223633,-10.994999885559082 -48.720001220703125,-13.444999694824219 C-48.58000183105469,-14.8149995803833 -48.25,-15.194999694824219 -47,-15.444999694824219 C-46.172000885009766,-15.592000007629395 -45.33100128173828,-15.659000396728516 -44.4900016784668,-15.645000457763672 C-43.09000015258789,-15.645000457763672 -42.790000915527344,-15.354999542236328 -42.4900016784668,-13.8149995803833 C-42.43000030517578,-13.5649995803833 -42.41999816894531,-13.305000305175781 -42.369998931884766,-13.055000305175781 C-42.09000015258789,-11.305000305175781 -40.81999969482422,-6.954999923706055 -40.45000076293945,-5.215000152587891 C-39.91999816894531,-2.7850000858306885 -38.65999984741211,-0.7549999952316284 -35.45000076293945,-1.6549999713897705 C-35.45000076293945,-1.6549999713897705 -35.220001220703125,-1.6549999713897705 -35.220001220703125,-1.6549999713897705 C-32.77199935913086,-2.2219998836517334 -31.246999740600586,-4.665999889373779 -31.81399917602539,-7.113999843597412 C-31.840999603271484,-7.23199987411499 -31.87299919128418,-7.348999977111816 -31.90999984741211,-7.465000152587891z M-43.47999954223633,-23.514999389648438 C-45.055999755859375,-23.191999435424805 -46.67399978637695,-23.131000518798828 -48.27000045776367,-23.334999084472656 C-49.349998474121094,-25.915000915527344 -48.540000915527344,-41.334999084472656 -46.54999923706055,-42.435001373291016 C-45.972999572753906,-42.78300094604492 -45.2239990234375,-42.59600067138672 -44.875999450683594,-42.01900100708008 C-44.83300018310547,-41.948001861572266 -44.797000885009766,-41.87300109863281 -44.77000045776367,-41.79499816894531 C-43.54999923706055,-38.79499816894531 -42.31999969482422,-28.885000228881836 -42.400001525878906,-24.344999313354492 C-42.380001068115234,-23.895000457763672 -43.040000915527344,-23.594999313354492 -43.47999954223633,-23.514999389648438z"></path></g><g opacity="1" transform="matrix(1,0,0,1,0,0)"><path fill="rgb(1,1,1)" fill-opacity="1" d=" M-42.380001068115234,81.7249984741211 C-43.391998291015625,82.1510009765625 -44.54499816894531,82.072998046875 -45.4900016784668,81.51499938964844 C-46.939998626708984,80.56500244140625 -47.4900016784668,79.00499725341797 -47.900001525878906,77.1050033569336 C-48.900001525878906,71.875 -50.34000015258789,66.73500061035156 -51.29999923706055,61.48500061035156 C-52.130001068115234,57.005001068115234 -53.13999938964844,52.584999084472656 -54.130001068115234,48.154998779296875 C-54.880001068115234,44.82500076293945 -55.83000183105469,41.564998626708984 -56.689998626708984,38.275001525878906 C-57.02000045776367,37.01499938964844 -57.38999938964844,35.755001068115234 -57.630001068115234,34.474998474121094 C-58.040000915527344,32.3849983215332 -57.18000030517578,31.075000762939453 -55.290000915527344,30.725000381469727 C-52.72999954223633,30.264999389648438 -50.81999969482422,31.645000457763672 -50.09000015258789,34.39500045776367 C-48.86000061035156,39.025001525878906 -44,65.48500061035156 -43.4900016784668,65.93499755859375 C-43.13999938964844,65.65499877929688 -41.630001068115234,43.935001373291016 -39.029998779296875,32.01499938964844 C-38.38999938964844,29.915000915527344 -38.34000015258789,27.934999465942383 -35.91999816894531,28.014999389648438 C-34.94499969482422,28.090999603271484 -33.987998962402344,28.327999114990234 -33.09000015258789,28.71500015258789 C-32.04399871826172,29.420000076293945 -31.53700065612793,30.694000244140625 -31.809999465942383,31.924999237060547 C-32.369998931884766,35.82500076293945 -32.65999984741211,39.79499816894531 -33.45000076293945,43.625 C-34.58000183105469,49.10499954223633 -35.02000045776367,54.28499984741211 -35.93000030517578,59.80500030517578 C-36.47999954223633,63.17499923706055 -36.72999954223633,66.59500122070312 -37.119998931884766,69.99500274658203 C-37.36000061035156,72.08499908447266 -38.380001068115234,77.50499725341797 -38.5099983215332,77.91500091552734 C-38.939998626708984,79.36499786376953 -39.5099983215332,80.67500305175781 -40.95000076293945,81.23500061035156 C-40.95000076293945,81.23500061035156 -42.380001068115234,81.7249984741211 -42.380001068115234,81.7249984741211z"></path></g><g opacity="1" transform="matrix(1,0,0,1,0,0)"><path fill="rgb(1,1,1)" fill-opacity="1" d=" M32.72999954223633,-134.5749969482422 C33.345001220703125,-134.41299438476562 33.944000244140625,-134.19500732421875 34.52000045776367,-133.9250030517578 C35.39400100708008,-133.4720001220703 36.3489990234375,-133.1959991455078 37.33000183105469,-133.11500549316406 C38.779998779296875,-132.9949951171875 40.220001220703125,-132.7550048828125 41.65999984741211,-132.5449981689453 C42.65999984741211,-132.37600708007812 43.5620002746582,-131.84100341796875 44.189998626708984,-131.0449981689453 C45.290000915527344,-129.7449951171875 45.36000061035156,-127.19499969482422 43.189998626708984,-126.49500274658203 C42.09700012207031,-126.18900299072266 40.965999603271484,-126.03700256347656 39.83000183105469,-126.04499816894531 C37.459999084472656,-125.93499755859375 36.52000045776367,-126.26499938964844 36.83000183105469,-122.36499786376953 C37.099998474121094,-119.21499633789062 37.38999938964844,-116.06500244140625 37.720001220703125,-112.92500305175781 C37.88999938964844,-111.29499816894531 38.290000915527344,-110.92500305175781 39.720001220703125,-110.80500030517578 C41.720001220703125,-110.63500213623047 43.720001220703125,-110.45500183105469 45.790000915527344,-110.33499908447266 C46.72200012207031,-110.26000213623047 47.5629997253418,-109.74400329589844 48.04999923706055,-108.94499969482422 C49.0989990234375,-107.66300201416016 48.90999984741211,-105.77200317382812 47.62799835205078,-104.7229995727539 C47.61199951171875,-104.70999908447266 47.59600067138672,-104.697998046875 47.58000183105469,-104.68499755859375 C46.608001708984375,-103.90599822998047 45.45000076293945,-103.39199829101562 44.220001220703125,-103.19499969482422 C42.790000915527344,-102.91500091552734 41.369998931884766,-102.51499938964844 39.959999084472656,-102.09500122070312 C39.255001068115234,-101.90599822998047 38.79600143432617,-101.2300033569336 38.880001068115234,-100.50499725341797 C39.060001373291016,-98.50499725341797 39.279998779296875,-96.50499725341797 39.5099983215332,-94.58499908447266 C39.573001861572266,-94.14299774169922 39.676998138427734,-93.70800018310547 39.81999969482422,-93.28500366210938 C40.09000015258789,-92.44499969482422 40.630001068115234,-92.13500213623047 41.34000015258789,-92.41500091552734 C41.79999923706055,-92.59500122070312 42.209999084472656,-92.92500305175781 42.68000030517578,-93.07499694824219 C43.65999984741211,-93.41799926757812 44.66299819946289,-93.69499969482422 45.68000030517578,-93.90499877929688 C47.5,-94.23500061035156 48.68000030517578,-92.26499938964844 48.619998931884766,-90.78500366210938 C48.595001220703125,-89.53399658203125 48.082000732421875,-88.34200286865234 47.189998626708984,-87.46499633789062 C45.5890007019043,-85.8740005493164 43.54800033569336,-84.7979965209961 41.33000183105469,-84.375 C40.30400085449219,-84.12100219726562 39.25600051879883,-83.97000122070312 38.20000076293945,-83.92500305175781 C36.4900016784668,-83.86499786376953 34.790000915527344,-83.92500305175781 33.439998626708984,-85.42500305175781 C32.5629997253418,-86.30999755859375 32.034000396728516,-87.48200225830078 31.950000762939453,-88.7249984741211 C31.65999984741211,-92.7249984741211 31.25,-96.63500213623047 30.950000762939453,-100.6050033569336 C30.600000381469727,-105.375 30.350000381469727,-110.16500091552734 30.020000457763672,-114.94499969482422 C29.850000381469727,-117.375 29.610000610351562,-119.80500030517578 29.40999984741211,-122.23500061035156 C29.190000534057617,-124.84500122070312 28.969999313354492,-127.45500183105469 28.780000686645508,-130.06500244140625 C28.77199935913086,-130.51400756835938 28.80900001525879,-130.96299743652344 28.889999389648438,-131.40499877929688 C29.420000076293945,-133.93499755859375 29.940000534057617,-134.44500732421875 32.72999954223633,-134.5749969482422z"></path></g><g opacity="1" transform="matrix(1,0,0,1,0,0)"><path fill="rgb(1,1,1)" fill-opacity="1" d=" M41.310001373291016,69.5250015258789 C41.775001525878906,69.81099700927734 42.207000732421875,70.14600372314453 42.599998474121094,70.5250015258789 C43.55400085449219,71.54000091552734 44.73699951171875,72.31099700927734 46.04999923706055,72.7750015258789 C46.83599853515625,73.18199920654297 47.79399871826172,73.05000305175781 48.439998626708984,72.44499969482422 C50.10200119018555,71.13200378417969 51.0890007019043,69.14299774169922 51.130001068115234,67.0250015258789 C51.284000396728516,64.87300109863281 50.78900146484375,62.7239990234375 49.709999084472656,60.85499954223633 C48.04999923706055,57.915000915527344 46.34000015258789,55.025001525878906 44.709999084472656,52.084999084472656 C42.959999084472656,48.98500061035156 41.04999923706055,45.974998474121094 40.25,42.334999084472656 C40.10300064086914,41.801998138427734 39.902000427246094,41.2859992980957 39.650001525878906,40.79499816894531 C39.11600112915039,39.597999572753906 38.86600112915039,38.29399871826172 38.91999816894531,36.98500061035156 C38.93600082397461,35.87300109863281 39.25,34.78499984741211 39.83000183105469,33.834999084472656 C41.250999450683594,31.4950008392334 43.340999603271484,29.635000228881836 45.83000183105469,28.4950008392334 C48.2400016784668,27.325000762939453 50.83000183105469,27.735000610351562 53.16999816894531,28.895000457763672 C54.61600112915039,29.70400047302246 55.13100051879883,31.531999588012695 54.321998596191406,32.97800064086914 C54.25,33.10599899291992 54.16999816894531,33.229000091552734 54.08000183105469,33.345001220703125 C53.50699996948242,34.3489990234375 52.43600082397461,34.96500015258789 51.279998779296875,34.95500183105469 C50.599998474121094,34.95500183105469 49.93000030517578,34.8650016784668 49.279998779296875,34.904998779296875 C47.790000915527344,35.01499938964844 47.040000915527344,36.04499816894531 47.13999938964844,37.71500015258789 C47.257999420166016,39.388999938964844 47.75699996948242,41.013999938964844 48.599998474121094,42.46500015258789 C50.492000579833984,45.98699951171875 52.61399841308594,49.38100051879883 54.95000076293945,52.625 C57.25400161743164,56.18299865722656 58.91899871826172,60.1150016784668 59.869998931884766,64.24500274658203 C60.36000061035156,66.7249984741211 60.4900016784668,69.24500274658203 59.22999954223633,71.61499786376953 C58.369998931884766,73.21499633789062 57.900001525878906,75.0250015258789 56.68000030517578,76.44499969482422 C54.93000030517578,78.6449966430664 52.66699981689453,80.38300323486328 50.09000015258789,81.50499725341797 C47.61800003051758,82.51899719238281 44.827999114990234,82.41300201416016 42.439998626708984,81.21499633789062 C40.720001220703125,80.36499786376953 39.709999084472656,78.59500122070312 38.93000030517578,76.6449966430664 C38.21099853515625,74.90899658203125 38.39500045776367,72.93000030517578 39.41999816894531,71.3550033569336 C39.96900177001953,70.66699981689453 40.60499954223633,70.052001953125 41.310001373291016,69.5250015258789z"></path></g><g opacity="1" transform="matrix(1,0,0,1,0,0)"><path fill="rgb(1,1,1)" fill-opacity="1" d=" M6.320000171661377,28.014999389648438 C7.651000022888184,27.952999114990234 8.96399974822998,28.347999572753906 10.039999961853027,29.135000228881836 C11.354000091552734,30.07900047302246 11.654000282287598,31.90999984741211 10.710000038146973,33.2239990234375 C10.399999618530273,33.654998779296875 9.977999687194824,33.994998931884766 9.489999771118164,34.20500183105469 C8.289999961853027,34.744998931884766 6.170000076293945,33.98500061035156 4.909999847412109,34.494998931884766 C4.409999847412109,35.21500015258789 4.550000190734863,42.82500076293945 5.550000190734863,47.94499969482422 C6.329999923706055,48.76499938964844 7.139999866485596,48.55500030517578 7.909999847412109,48.54499816894531 C9.300000190734863,48.54499816894531 10.699999809265137,48.46500015258789 12.09000015258789,48.54499816894531 C12.70300006866455,48.56100082397461 13.307000160217285,48.69300079345703 13.869999885559082,48.935001373291016 C15.404000282287598,49.73099899291992 16.00200080871582,51.62099838256836 15.206000328063965,53.154998779296875 C15.138999938964844,53.28300094604492 15.064000129699707,53.40700149536133 14.979999542236328,53.525001525878906 C14.454000473022461,54.388999938964844 13.666000366210938,55.06100082397461 12.729999542236328,55.44499969482422 C11.489999771118164,55.8849983215332 10.239999771118164,56.30500030517578 8.970000267028809,56.6349983215332 C8.043999671936035,56.74599838256836 7.168000221252441,57.112998962402344 6.440000057220459,57.69499969482422 C6.199999809265137,60.058998107910156 6.199999809265137,62.441001892089844 6.440000057220459,64.80500030517578 C6.590000152587891,67.31500244140625 6.960000038146973,69.80500030517578 7.28000020980835,72.30500030517578 C7.28000020980835,72.65499877929688 7.630000114440918,72.95500183105469 7.800000190734863,73.30500030517578 C8.789999961853027,73.36900329589844 9.770999908447266,73.08200073242188 10.569999694824219,72.49500274658203 C11.753000259399414,71.9010009765625 13.086000442504883,71.6719970703125 14.399999618530273,71.83499908447266 C15.145000457763672,71.88099670410156 15.774999618530273,72.4020004272461 15.960000038146973,73.125 C16.676000595092773,74.53099822998047 16.43199920654297,76.23600006103516 15.350000381469727,77.38500213623047 C13.01099967956543,80.26300048828125 9.579999923706055,82.03800201416016 5.880000114440918,82.28500366210938 C4.925000190734863,82.375 3.9649999141693115,82.375 3.009999990463257,82.28500366210938 C1.0390000343322754,82.00800323486328 -0.5220000147819519,80.4800033569336 -0.8399999737739563,78.51499938964844 C-1.63100004196167,74.7229995727539 -1.909999966621399,70.84100341796875 -1.6699999570846558,66.9749984741211 C-1.5399999618530273,61.244998931884766 -1.7599999904632568,55.53499984741211 -2.1700000762939453,49.82500076293945 C-2.4800000190734863,45.564998626708984 -2.7100000381469727,41.30500030517578 -2.9800000190734863,37.05500030517578 C-3.140000104904175,34.564998626708984 -2.859999895095825,32.224998474121094 -1.2300000190734863,30.30500030517578 C0.6200000047683716,27.53499984741211 5.539999961853027,27.9950008392334 6.320000171661377,28.014999389648438z"></path></g><g opacity="1" transform="matrix(1,0,0,1,0,0)"><path fill="rgb(1,1,1)" fill-opacity="1" d=" M-44.58000183105469,-93.18499755859375 C-43,-92.25199890136719 -40.9739990234375,-92.63200378417969 -39.84000015258789,-94.07499694824219 C-39.84000015258789,-94.07499694824219 -39.720001220703125,-94.21499633789062 -39.720001220703125,-94.21499633789062 C-39.0260009765625,-95.11799621582031 -37.95899963378906,-95.65499877929688 -36.81999969482422,-95.67500305175781 C-34.52000045776367,-95.67500305175781 -33.09000015258789,-93.73500061035156 -33.81999969482422,-91.29499816894531 C-34.70000076293945,-88.29499816894531 -36.279998779296875,-85.79499816894531 -39.09000015258789,-84.66500091552734 C-40.801998138427734,-83.81700134277344 -42.749000549316406,-83.56700134277344 -44.619998931884766,-83.95500183105469 C-47.150001525878906,-84.54000091552734 -49.41400146484375,-85.9469985961914 -51.060001373291016,-87.95500183105469 C-53.183998107910156,-90.39700317382812 -54.875,-93.18399810791016 -56.060001373291016,-96.19499969482422 C-56.41400146484375,-97.26000213623047 -56.6879997253418,-98.3489990234375 -56.880001068115234,-99.45500183105469 C-57.50299835205078,-103.427001953125 -57.5629997253418,-107.46600341796875 -57.060001373291016,-111.45500183105469 C-56.94499969482422,-113.71900177001953 -56.66400146484375,-115.97200012207031 -56.220001220703125,-118.19499969482422 C-55.39799880981445,-121.35900115966797 -54.242000579833984,-124.4260025024414 -52.77000045776367,-127.34500122070312 C-51.33599853515625,-130.2449951171875 -48.909000396728516,-132.53399658203125 -45.93000030517578,-133.7949981689453 C-44.07400131225586,-134.5489959716797 -41.99599838256836,-134.5489959716797 -40.13999938964844,-133.7949981689453 C-39.03300094604492,-133.28199768066406 -38.05500030517578,-132.52699279785156 -37.279998779296875,-131.5850067138672 C-36.4630012512207,-130.81900024414062 -36.36800003051758,-129.55499267578125 -37.060001373291016,-128.6750030517578 C-37.83000183105469,-127.90499877929688 -38.79999923706055,-127.80500030517578 -40.310001373291016,-127.95500183105469 C-43.7599983215332,-128.4149932861328 -44.310001373291016,-126.42500305175781 -45.560001373291016,-124.75499725341797 C-46.590999603271484,-123.18800354003906 -47.44200134277344,-121.51100158691406 -48.099998474121094,-119.75499725341797 C-49.25,-117.32499694824219 -49.15999984741211,-115.63500213623047 -49.65999984741211,-112.99500274658203 C-50.21500015258789,-109.73799896240234 -50.323001861572266,-106.4209976196289 -49.97999954223633,-103.13500213623047 C-49.88999938964844,-100.06400299072266 -48.66400146484375,-97.13500213623047 -46.540000915527344,-94.91500091552734 C-45.98099899291992,-94.26599884033203 -45.349998474121094,-93.68299865722656 -44.65999984741211,-93.17500305175781 C-44.65999984741211,-93.17500305175781 -44.58000183105469,-93.18499755859375 -44.58000183105469,-93.18499755859375z"></path></g><g opacity="1" transform="matrix(1,0,0,1,0,0)"><path fill="rgb(1,1,1)" fill-opacity="1" d=" M1.6200000047683716,-43.07500076293945 C1.690000057220459,-40.35499954223633 3.009999990463257,-24.125 3.309999942779541,-19.78499984741211 C3.5399999618530273,-16.594999313354492 3.5899999141693115,-14.944999694824219 3.819999933242798,-11.78499984741211 C3.880000114440918,-10.78499984741211 4.190000057220459,-7.385000228881836 4.340000152587891,-6.425000190734863 C4.336999893188477,-5.75600004196167 4.294000148773193,-5.0879998207092285 4.210000038146973,-4.425000190734863 C4.202000141143799,-3.0199999809265137 3.2890000343322754,-1.7799999713897705 1.9500000476837158,-1.3550000190734863 C0.75,-0.9990000128746033 -0.5370000004768372,-1.0839999914169312 -1.6799999475479126,-1.5950000286102295 C-2.7139999866485596,-1.9490000009536743 -3.4509999752044678,-2.86899995803833 -3.569999933242798,-3.9549999237060547 C-3.75,-4.954999923706055 -3.7699999809265137,-5.954999923706055 -3.869999885559082,-6.954999923706055 C-4.440000057220459,-12.175000190734863 -4.980000019073486,-26.584999084472656 -5.309999942779541,-28.625 C-5.800000190734863,-31.684999465942383 -5.480000019073486,-35.07500076293945 -5.809999942779541,-38.17499923706055 C-5.920000076293945,-39.23500061035156 -5.28000020980835,-43.48500061035156 -7.460000038146973,-43.3650016784668 C-7.929999828338623,-43.474998474121094 -8.460000038146973,-43.415000915527344 -8.890000343322754,-43.48500061035156 C-10.593999862670898,-43.79100036621094 -11.937999725341797,-45.108001708984375 -12.279999732971191,-46.80500030517578 C-12.640000343322754,-48.19499969482422 -11.84000015258789,-50.584999084472656 -10.390000343322754,-50.935001373291016 C-7.86899995803833,-51.194000244140625 -5.333000183105469,-51.284000396728516 -2.799999952316284,-51.20500183105469 C-1.1299999952316284,-51.05500030517578 1.8899999856948853,-50.974998474121094 3.559999942779541,-50.834999084472656 C4.199999809265137,-50.834999084472656 4.829999923706055,-50.67499923706055 5.460000038146973,-50.57500076293945 C6.460000038146973,-50.415000915527344 7.03000020980835,-49.494998931884766 7.590000152587891,-48.57500076293945 C8.529999732971191,-47.06100082397461 8.086000442504883,-45.07400131225586 6.590000152587891,-44.10499954223633 C5.739999771118164,-43.6150016784668 2.7200000286102295,-43.564998626708984 1.6200000047683716,-43.07500076293945z"></path></g><g opacity="1" transform="matrix(1,0,0,1,0,0)"><path fill="rgb(1,1,1)" fill-opacity="1" d=" M50.209999084472656,-7.074999809265137 C49.249000549316406,-8.449999809265137 47.69599914550781,-9.291000366210938 46.02000045776367,-9.345000267028809 C45.869998931884766,-9.944999694824219 44.61000061035156,-24.424999237060547 44.349998474121094,-29.604999542236328 C44.15999984741211,-33.21500015258789 43.560001373291016,-36.79499816894531 43.20000076293945,-40.39500045776367 C42.91999816894531,-41.41899871826172 42.941001892089844,-42.50199890136719 43.2599983215332,-43.51499938964844 C43.779998779296875,-43.64500045776367 44.31999969482422,-43.724998474121094 44.81999969482422,-43.89500045776367 C45.34600067138672,-44.069000244140625 45.8489990234375,-44.30400085449219 46.31999969482422,-44.595001220703125 C47.433998107910156,-45.292999267578125 47.861000061035156,-46.707000732421875 47.31999969482422,-47.904998779296875 C47.02199935913086,-49.0359992980957 46.15299987792969,-49.928001403808594 45.029998779296875,-50.255001068115234 C43.683998107910156,-50.61800003051758 42.292999267578125,-50.78300094604492 40.900001525878906,-50.744998931884766 C39.130001068115234,-50.744998931884766 37.36000061035156,-51.04499816894531 35.58000183105469,-51.165000915527344 C34.96099853515625,-51.196998596191406 34.34000015258789,-51.132999420166016 33.7400016784668,-50.974998474121094 C31.559999465942383,-50.404998779296875 30.6200008392334,-47.474998474121094 31.899999618530273,-45.44499969482422 C32.7760009765625,-44.00600051879883 34.27399826049805,-43.05799865722656 35.95000076293945,-42.8849983215332 C36.06999969482422,-42.26499938964844 36.189998626708984,-41.8849983215332 36.22999954223633,-41.435001373291016 C36.61000061035156,-36.435001373291016 36.95000076293945,-31.434999465942383 37.369998931884766,-26.434999465942383 C37.52000045776367,-24.665000915527344 38.5,-14.125 38.709999084472656,-11.574999809265137 C38.790000915527344,-10.305000305175781 38.81999969482422,-9.154999732971191 38.790000915527344,-8.345000267028809 C38.790000915527344,-8.28499984741211 38.790000915527344,-8.21500015258789 38.790000915527344,-8.175000190734863 C38.27199935913086,-8.041000366210938 37.762001037597656,-7.880000114440918 37.2599983215332,-7.695000171661377 C36.74700164794922,-7.480000019073486 36.257999420166016,-7.211999893188477 35.79999923706055,-6.894999980926514 C34.71500015258789,-6.13700008392334 34.349998474121094,-4.698999881744385 34.939998626708984,-3.515000104904175 C35.305999755859375,-2.4100000858306885 36.2239990234375,-1.5789999961853027 37.36000061035156,-1.3250000476837158 C38.72600173950195,-1.0579999685287476 40.124000549316406,-0.9909999966621399 41.5099983215332,-1.125 C43.279998779296875,-1.274999976158142 45.06999969482422,-1.065000057220459 46.84000015258789,-1.0750000476837158 C47.46200180053711,-1.0920000076293945 48.07899856567383,-1.2000000476837158 48.66999816894531,-1.3949999809265137 C50.83000183105469,-2.1549999713897705 51.619998931884766,-5.144999980926514 50.209999084472656,-7.074999809265137z"></path></g></g><g mask="url(#__lottie_element_8)" style="display: block;" transform="matrix(0.9999998807907104,-0.00047123889089562,0.00047123889089562,0.9999998807907104,-286.88214111328125,-74.611328125)" opacity="1"><rect width="1649" height="2136" fill="#ffffff"></rect></g><g clip-path="url(#__lottie_element_5)" style="display: block;" transform="matrix(4,0,0,4,538.509033203125,993.0599975585938)" opacity="1"><g opacity="1" transform="matrix(1,0,0,1,0,0)"><path fill="rgb(1,1,1)" fill-opacity="1" d=" M-2.680000066757202,-98.4749984741211 C-2.680000066757202,-97.71499633789062 -2.5899999141693115,-96.96499633789062 -2.569999933242798,-96.20500183105469 C-2.569999933242798,-94.48500061035156 -2.369999885559082,-89.01499938964844 -2.3399999141693115,-87.29499816894531 C-2.13700008392334,-85.75499725341797 -3.1440000534057617,-84.31400299072266 -4.659999847412109,-83.9749984741211 C-5.704999923706055,-83.69499969482422 -6.804999828338623,-83.69499969482422 -7.849999904632568,-83.9749984741211 C-9.27299976348877,-84.4729995727539 -10.269000053405762,-85.76200103759766 -10.390000343322754,-87.26499938964844 C-10.520000457763672,-88.9749984741211 -10.890000343322754,-100.59500122070312 -10.84000015258789,-102.83499908447266 C-10.760000228881836,-106.26499938964844 -11.039999961853027,-109.70500183105469 -11.25,-113.13500213623047 C-11.550000190734863,-117.86499786376953 -11.920000076293945,-122.57499694824219 -12.25,-127.29499816894531 C-12.25,-127.6449966430664 -12.25,-127.99500274658203 -12.319999694824219,-128.2949981689453 C-12.880000114440918,-131.52499389648438 -9.6899995803833,-134.43499755859375 -7.039999961853027,-134.2949981689453 C-2.7699999809265137,-134.09500122070312 0.49000000953674316,-131.93499755859375 2.9600000381469727,-128.22500610351562 C4.613999843597412,-125.78199768066406 5.690999984741211,-122.99500274658203 6.110000133514404,-120.07499694824219 C6.668000221252441,-116.84600067138672 6.065000057220459,-113.52300262451172 4.409999847412109,-110.69499969482422 C4.13700008392334,-110.2750015258789 3.88700008392334,-109.84100341796875 3.6600000858306885,-109.3949966430664 C2.9100000858306885,-108.12100219726562 2.9100000858306885,-106.53900146484375 3.6600000858306885,-105.26499938964844 C4.130000114440918,-104.48500061035156 4.400000095367432,-103.55500030517578 4.829999923706055,-102.74500274658203 C5.75,-101.06500244140625 6.489999771118164,-99.28500366210938 7.579999923706055,-97.68499755859375 C9.048999786376953,-95.43199920654297 10.383999824523926,-93.09400177001953 11.579999923706055,-90.68499755859375 C12.029999732971191,-89.77200317382812 12.343000411987305,-88.79900360107422 12.510000228881836,-87.79499816894531 C12.75,-86.68699645996094 12.300000190734863,-85.54299926757812 11.369999885559082,-84.8949966430664 C9.449000358581543,-83.30899810791016 6.60699987411499,-83.58100128173828 5.020999908447266,-85.50199890136719 C4.968999862670898,-85.56500244140625 4.919000148773193,-85.62899780273438 4.869999885559082,-85.69499969482422 C4.570000171661377,-86.0979995727539 4.298999786376953,-86.52300262451172 4.059999942779541,-86.96499633789062 C2.059999942779541,-90.625 -0.28999999165534973,-94.04499816894531 -1.7899999618530273,-98.0250015258789 C-1.8799999952316284,-98.26499938964844 -2,-98.48500061035156 -2.0999999046325684,-98.70500183105469 C-2.0999999046325684,-98.70500183105469 -2.680000066757202,-98.4749984741211 -2.680000066757202,-98.4749984741211z M-5.820000171661377,-128.90499877929688 C-7.820000171661377,-127.20500183105469 -6.010000228881836,-109.28500366210938 -4.21999979019165,-109.07499694824219 C-2.430000066757202,-108.86499786376953 -0.5400000214576721,-113.76499938964844 -0.5199999809265137,-115.93499755859375 C-0.5199999809265137,-117.34500122070312 -0.38999998569488525,-118.93499755859375 -0.4399999976158142,-120.33499908447266 C-0.5600000023841858,-123.32499694824219 -4.25,-129.44500732421875 -5.820000171661377,-128.90499877929688z"></path></g><g opacity="1" transform="matrix(1,0,0,1,0,0)"><path fill="rgb(1,1,1)" fill-opacity="1" d=" M-31.90999984741211,-7.465000152587891 C-32.11000061035156,-8.28499984741211 -33.689998626708984,-13.6850004196167 -33.90999984741211,-14.46500015258789 C-34.66999816894531,-17.325000762939453 -37.150001525878906,-28.905000686645508 -37.7599983215332,-32.845001220703125 C-37.869998931884766,-33.51499938964844 -37.97999954223633,-34.185001373291016 -38.119998931884766,-34.845001220703125 C-38.47999954223633,-36.584999084472656 -38.81999969482422,-38.334999084472656 -39.22999954223633,-40.064998626708984 C-39.81999969482422,-42.525001525878906 -40.43000030517578,-44.98500061035156 -41.11000061035156,-47.42499923706055 C-41.29899978637695,-48.40700149536133 -41.88100051879883,-49.27000045776367 -42.720001220703125,-49.814998626708984 C-44.05699920654297,-50.60900115966797 -45.61199951171875,-50.95899963378906 -47.15999984741211,-50.814998626708984 C-48.7400016784668,-50.6349983215332 -50.86000061035156,-48.70500183105469 -51.58000183105469,-46.814998626708984 C-52.29999923706055,-44.92499923706055 -54.380001068115234,-31.075000762939453 -54.380001068115234,-31.075000762939453 C-54.72999954223633,-28.924999237060547 -55.380001068115234,-18.71500015258789 -55.779998779296875,-16.024999618530273 C-56.20000076293945,-13.024999618530273 -56.84000015258789,-6.914999961853027 -56.779998779296875,-6.90500020980835 C-56.86600112915039,-6.242000102996826 -56.90999984741211,-5.573999881744385 -56.90999984741211,-4.90500020980835 C-56.8650016784668,-4.150000095367432 -56.75400161743164,-3.4010000228881836 -56.58000183105469,-2.6649999618530273 C-56.46799850463867,-2.0950000286102295 -56.05400085449219,-1.63100004196167 -55.5,-1.4550000429153442 C-54.494998931884766,-1.034999966621399 -53.3650016784668,-1.034999966621399 -52.36000061035156,-1.4550000429153442 C-50.547000885009766,-2.2780001163482666 -49.38199996948242,-4.084000110626221 -49.380001068115234,-6.074999809265137 C-49.220001220703125,-8.53499984741211 -48.97999954223633,-10.994999885559082 -48.720001220703125,-13.444999694824219 C-48.58000183105469,-14.8149995803833 -48.25,-15.194999694824219 -47,-15.444999694824219 C-46.172000885009766,-15.592000007629395 -45.33100128173828,-15.659000396728516 -44.4900016784668,-15.645000457763672 C-43.09000015258789,-15.645000457763672 -42.790000915527344,-15.354999542236328 -42.4900016784668,-13.8149995803833 C-42.43000030517578,-13.5649995803833 -42.41999816894531,-13.305000305175781 -42.369998931884766,-13.055000305175781 C-42.09000015258789,-11.305000305175781 -40.81999969482422,-6.954999923706055 -40.45000076293945,-5.215000152587891 C-39.91999816894531,-2.7850000858306885 -38.65999984741211,-0.7549999952316284 -35.45000076293945,-1.6549999713897705 C-35.45000076293945,-1.6549999713897705 -35.220001220703125,-1.6549999713897705 -35.220001220703125,-1.6549999713897705 C-32.77199935913086,-2.2219998836517334 -31.246999740600586,-4.665999889373779 -31.81399917602539,-7.113999843597412 C-31.840999603271484,-7.23199987411499 -31.87299919128418,-7.348999977111816 -31.90999984741211,-7.465000152587891z M-43.47999954223633,-23.514999389648438 C-45.055999755859375,-23.191999435424805 -46.67399978637695,-23.131000518798828 -48.27000045776367,-23.334999084472656 C-49.349998474121094,-25.915000915527344 -48.540000915527344,-41.334999084472656 -46.54999923706055,-42.435001373291016 C-45.972999572753906,-42.78300094604492 -45.2239990234375,-42.59600067138672 -44.875999450683594,-42.01900100708008 C-44.83300018310547,-41.948001861572266 -44.797000885009766,-41.87300109863281 -44.77000045776367,-41.79499816894531 C-43.54999923706055,-38.79499816894531 -42.31999969482422,-28.885000228881836 -42.400001525878906,-24.344999313354492 C-42.380001068115234,-23.895000457763672 -43.040000915527344,-23.594999313354492 -43.47999954223633,-23.514999389648438z"></path></g><g opacity="1" transform="matrix(1,0,0,1,0,0)"><path fill="rgb(1,1,1)" fill-opacity="1" d=" M-42.380001068115234,81.7249984741211 C-43.391998291015625,82.1510009765625 -44.54499816894531,82.072998046875 -45.4900016784668,81.51499938964844 C-46.939998626708984,80.56500244140625 -47.4900016784668,79.00499725341797 -47.900001525878906,77.1050033569336 C-48.900001525878906,71.875 -50.34000015258789,66.73500061035156 -51.29999923706055,61.48500061035156 C-52.130001068115234,57.005001068115234 -53.13999938964844,52.584999084472656 -54.130001068115234,48.154998779296875 C-54.880001068115234,44.82500076293945 -55.83000183105469,41.564998626708984 -56.689998626708984,38.275001525878906 C-57.02000045776367,37.01499938964844 -57.38999938964844,35.755001068115234 -57.630001068115234,34.474998474121094 C-58.040000915527344,32.3849983215332 -57.18000030517578,31.075000762939453 -55.290000915527344,30.725000381469727 C-52.72999954223633,30.264999389648438 -50.81999969482422,31.645000457763672 -50.09000015258789,34.39500045776367 C-48.86000061035156,39.025001525878906 -44,65.48500061035156 -43.4900016784668,65.93499755859375 C-43.13999938964844,65.65499877929688 -41.630001068115234,43.935001373291016 -39.029998779296875,32.01499938964844 C-38.38999938964844,29.915000915527344 -38.34000015258789,27.934999465942383 -35.91999816894531,28.014999389648438 C-34.94499969482422,28.090999603271484 -33.987998962402344,28.327999114990234 -33.09000015258789,28.71500015258789 C-32.04399871826172,29.420000076293945 -31.53700065612793,30.694000244140625 -31.809999465942383,31.924999237060547 C-32.369998931884766,35.82500076293945 -32.65999984741211,39.79499816894531 -33.45000076293945,43.625 C-34.58000183105469,49.10499954223633 -35.02000045776367,54.28499984741211 -35.93000030517578,59.80500030517578 C-36.47999954223633,63.17499923706055 -36.72999954223633,66.59500122070312 -37.119998931884766,69.99500274658203 C-37.36000061035156,72.08499908447266 -38.380001068115234,77.50499725341797 -38.5099983215332,77.91500091552734 C-38.939998626708984,79.36499786376953 -39.5099983215332,80.67500305175781 -40.95000076293945,81.23500061035156 C-40.95000076293945,81.23500061035156 -42.380001068115234,81.7249984741211 -42.380001068115234,81.7249984741211z"></path></g><g opacity="1" transform="matrix(1,0,0,1,0,0)"><path fill="rgb(1,1,1)" fill-opacity="1" d=" M32.72999954223633,-134.5749969482422 C33.345001220703125,-134.41299438476562 33.944000244140625,-134.19500732421875 34.52000045776367,-133.9250030517578 C35.39400100708008,-133.4720001220703 36.3489990234375,-133.1959991455078 37.33000183105469,-133.11500549316406 C38.779998779296875,-132.9949951171875 40.220001220703125,-132.7550048828125 41.65999984741211,-132.5449981689453 C42.65999984741211,-132.37600708007812 43.5620002746582,-131.84100341796875 44.189998626708984,-131.0449981689453 C45.290000915527344,-129.7449951171875 45.36000061035156,-127.19499969482422 43.189998626708984,-126.49500274658203 C42.09700012207031,-126.18900299072266 40.965999603271484,-126.03700256347656 39.83000183105469,-126.04499816894531 C37.459999084472656,-125.93499755859375 36.52000045776367,-126.26499938964844 36.83000183105469,-122.36499786376953 C37.099998474121094,-119.21499633789062 37.38999938964844,-116.06500244140625 37.720001220703125,-112.92500305175781 C37.88999938964844,-111.29499816894531 38.290000915527344,-110.92500305175781 39.720001220703125,-110.80500030517578 C41.720001220703125,-110.63500213623047 43.720001220703125,-110.45500183105469 45.790000915527344,-110.33499908447266 C46.72200012207031,-110.26000213623047 47.5629997253418,-109.74400329589844 48.04999923706055,-108.94499969482422 C49.0989990234375,-107.66300201416016 48.90999984741211,-105.77200317382812 47.62799835205078,-104.7229995727539 C47.61199951171875,-104.70999908447266 47.59600067138672,-104.697998046875 47.58000183105469,-104.68499755859375 C46.608001708984375,-103.90599822998047 45.45000076293945,-103.39199829101562 44.220001220703125,-103.19499969482422 C42.790000915527344,-102.91500091552734 41.369998931884766,-102.51499938964844 39.959999084472656,-102.09500122070312 C39.255001068115234,-101.90599822998047 38.79600143432617,-101.2300033569336 38.880001068115234,-100.50499725341797 C39.060001373291016,-98.50499725341797 39.279998779296875,-96.50499725341797 39.5099983215332,-94.58499908447266 C39.573001861572266,-94.14299774169922 39.676998138427734,-93.70800018310547 39.81999969482422,-93.28500366210938 C40.09000015258789,-92.44499969482422 40.630001068115234,-92.13500213623047 41.34000015258789,-92.41500091552734 C41.79999923706055,-92.59500122070312 42.209999084472656,-92.92500305175781 42.68000030517578,-93.07499694824219 C43.65999984741211,-93.41799926757812 44.66299819946289,-93.69499969482422 45.68000030517578,-93.90499877929688 C47.5,-94.23500061035156 48.68000030517578,-92.26499938964844 48.619998931884766,-90.78500366210938 C48.595001220703125,-89.53399658203125 48.082000732421875,-88.34200286865234 47.189998626708984,-87.46499633789062 C45.5890007019043,-85.8740005493164 43.54800033569336,-84.7979965209961 41.33000183105469,-84.375 C40.30400085449219,-84.12100219726562 39.25600051879883,-83.97000122070312 38.20000076293945,-83.92500305175781 C36.4900016784668,-83.86499786376953 34.790000915527344,-83.92500305175781 33.439998626708984,-85.42500305175781 C32.5629997253418,-86.30999755859375 32.034000396728516,-87.48200225830078 31.950000762939453,-88.7249984741211 C31.65999984741211,-92.7249984741211 31.25,-96.63500213623047 30.950000762939453,-100.6050033569336 C30.600000381469727,-105.375 30.350000381469727,-110.16500091552734 30.020000457763672,-114.94499969482422 C29.850000381469727,-117.375 29.610000610351562,-119.80500030517578 29.40999984741211,-122.23500061035156 C29.190000534057617,-124.84500122070312 28.969999313354492,-127.45500183105469 28.780000686645508,-130.06500244140625 C28.77199935913086,-130.51400756835938 28.80900001525879,-130.96299743652344 28.889999389648438,-131.40499877929688 C29.420000076293945,-133.93499755859375 29.940000534057617,-134.44500732421875 32.72999954223633,-134.5749969482422z"></path></g><g opacity="1" transform="matrix(1,0,0,1,0,0)"><path fill="rgb(1,1,1)" fill-opacity="1" d=" M41.310001373291016,69.5250015258789 C41.775001525878906,69.81099700927734 42.207000732421875,70.14600372314453 42.599998474121094,70.5250015258789 C43.55400085449219,71.54000091552734 44.73699951171875,72.31099700927734 46.04999923706055,72.7750015258789 C46.83599853515625,73.18199920654297 47.79399871826172,73.05000305175781 48.439998626708984,72.44499969482422 C50.10200119018555,71.13200378417969 51.0890007019043,69.14299774169922 51.130001068115234,67.0250015258789 C51.284000396728516,64.87300109863281 50.78900146484375,62.7239990234375 49.709999084472656,60.85499954223633 C48.04999923706055,57.915000915527344 46.34000015258789,55.025001525878906 44.709999084472656,52.084999084472656 C42.959999084472656,48.98500061035156 41.04999923706055,45.974998474121094 40.25,42.334999084472656 C40.10300064086914,41.801998138427734 39.902000427246094,41.2859992980957 39.650001525878906,40.79499816894531 C39.11600112915039,39.597999572753906 38.86600112915039,38.29399871826172 38.91999816894531,36.98500061035156 C38.93600082397461,35.87300109863281 39.25,34.78499984741211 39.83000183105469,33.834999084472656 C41.250999450683594,31.4950008392334 43.340999603271484,29.635000228881836 45.83000183105469,28.4950008392334 C48.2400016784668,27.325000762939453 50.83000183105469,27.735000610351562 53.16999816894531,28.895000457763672 C54.61600112915039,29.70400047302246 55.13100051879883,31.531999588012695 54.321998596191406,32.97800064086914 C54.25,33.10599899291992 54.16999816894531,33.229000091552734 54.08000183105469,33.345001220703125 C53.50699996948242,34.3489990234375 52.43600082397461,34.96500015258789 51.279998779296875,34.95500183105469 C50.599998474121094,34.95500183105469 49.93000030517578,34.8650016784668 49.279998779296875,34.904998779296875 C47.790000915527344,35.01499938964844 47.040000915527344,36.04499816894531 47.13999938964844,37.71500015258789 C47.257999420166016,39.388999938964844 47.75699996948242,41.013999938964844 48.599998474121094,42.46500015258789 C50.492000579833984,45.98699951171875 52.61399841308594,49.38100051879883 54.95000076293945,52.625 C57.25400161743164,56.18299865722656 58.91899871826172,60.1150016784668 59.869998931884766,64.24500274658203 C60.36000061035156,66.7249984741211 60.4900016784668,69.24500274658203 59.22999954223633,71.61499786376953 C58.369998931884766,73.21499633789062 57.900001525878906,75.0250015258789 56.68000030517578,76.44499969482422 C54.93000030517578,78.6449966430664 52.66699981689453,80.38300323486328 50.09000015258789,81.50499725341797 C47.61800003051758,82.51899719238281 44.827999114990234,82.41300201416016 42.439998626708984,81.21499633789062 C40.720001220703125,80.36499786376953 39.709999084472656,78.59500122070312 38.93000030517578,76.6449966430664 C38.21099853515625,74.90899658203125 38.39500045776367,72.93000030517578 39.41999816894531,71.3550033569336 C39.96900177001953,70.66699981689453 40.60499954223633,70.052001953125 41.310001373291016,69.5250015258789z"></path></g><g opacity="1" transform="matrix(1,0,0,1,0,0)"><path fill="rgb(1,1,1)" fill-opacity="1" d=" M6.320000171661377,28.014999389648438 C7.651000022888184,27.952999114990234 8.96399974822998,28.347999572753906 10.039999961853027,29.135000228881836 C11.354000091552734,30.07900047302246 11.654000282287598,31.90999984741211 10.710000038146973,33.2239990234375 C10.399999618530273,33.654998779296875 9.977999687194824,33.994998931884766 9.489999771118164,34.20500183105469 C8.289999961853027,34.744998931884766 6.170000076293945,33.98500061035156 4.909999847412109,34.494998931884766 C4.409999847412109,35.21500015258789 4.550000190734863,42.82500076293945 5.550000190734863,47.94499969482422 C6.329999923706055,48.76499938964844 7.139999866485596,48.55500030517578 7.909999847412109,48.54499816894531 C9.300000190734863,48.54499816894531 10.699999809265137,48.46500015258789 12.09000015258789,48.54499816894531 C12.70300006866455,48.56100082397461 13.307000160217285,48.69300079345703 13.869999885559082,48.935001373291016 C15.404000282287598,49.73099899291992 16.00200080871582,51.62099838256836 15.206000328063965,53.154998779296875 C15.138999938964844,53.28300094604492 15.064000129699707,53.40700149536133 14.979999542236328,53.525001525878906 C14.454000473022461,54.388999938964844 13.666000366210938,55.06100082397461 12.729999542236328,55.44499969482422 C11.489999771118164,55.8849983215332 10.239999771118164,56.30500030517578 8.970000267028809,56.6349983215332 C8.043999671936035,56.74599838256836 7.168000221252441,57.112998962402344 6.440000057220459,57.69499969482422 C6.199999809265137,60.058998107910156 6.199999809265137,62.441001892089844 6.440000057220459,64.80500030517578 C6.590000152587891,67.31500244140625 6.960000038146973,69.80500030517578 7.28000020980835,72.30500030517578 C7.28000020980835,72.65499877929688 7.630000114440918,72.95500183105469 7.800000190734863,73.30500030517578 C8.789999961853027,73.36900329589844 9.770999908447266,73.08200073242188 10.569999694824219,72.49500274658203 C11.753000259399414,71.9010009765625 13.086000442504883,71.6719970703125 14.399999618530273,71.83499908447266 C15.145000457763672,71.88099670410156 15.774999618530273,72.4020004272461 15.960000038146973,73.125 C16.676000595092773,74.53099822998047 16.43199920654297,76.23600006103516 15.350000381469727,77.38500213623047 C13.01099967956543,80.26300048828125 9.579999923706055,82.03800201416016 5.880000114440918,82.28500366210938 C4.925000190734863,82.375 3.9649999141693115,82.375 3.009999990463257,82.28500366210938 C1.0390000343322754,82.00800323486328 -0.5220000147819519,80.4800033569336 -0.8399999737739563,78.51499938964844 C-1.63100004196167,74.7229995727539 -1.909999966621399,70.84100341796875 -1.6699999570846558,66.9749984741211 C-1.5399999618530273,61.244998931884766 -1.7599999904632568,55.53499984741211 -2.1700000762939453,49.82500076293945 C-2.4800000190734863,45.564998626708984 -2.7100000381469727,41.30500030517578 -2.9800000190734863,37.05500030517578 C-3.140000104904175,34.564998626708984 -2.859999895095825,32.224998474121094 -1.2300000190734863,30.30500030517578 C0.6200000047683716,27.53499984741211 5.539999961853027,27.9950008392334 6.320000171661377,28.014999389648438z"></path></g><g opacity="1" transform="matrix(1,0,0,1,0,0)"><path fill="rgb(1,1,1)" fill-opacity="1" d=" M-44.58000183105469,-93.18499755859375 C-43,-92.25199890136719 -40.9739990234375,-92.63200378417969 -39.84000015258789,-94.07499694824219 C-39.84000015258789,-94.07499694824219 -39.720001220703125,-94.21499633789062 -39.720001220703125,-94.21499633789062 C-39.0260009765625,-95.11799621582031 -37.95899963378906,-95.65499877929688 -36.81999969482422,-95.67500305175781 C-34.52000045776367,-95.67500305175781 -33.09000015258789,-93.73500061035156 -33.81999969482422,-91.29499816894531 C-34.70000076293945,-88.29499816894531 -36.279998779296875,-85.79499816894531 -39.09000015258789,-84.66500091552734 C-40.801998138427734,-83.81700134277344 -42.749000549316406,-83.56700134277344 -44.619998931884766,-83.95500183105469 C-47.150001525878906,-84.54000091552734 -49.41400146484375,-85.9469985961914 -51.060001373291016,-87.95500183105469 C-53.183998107910156,-90.39700317382812 -54.875,-93.18399810791016 -56.060001373291016,-96.19499969482422 C-56.41400146484375,-97.26000213623047 -56.6879997253418,-98.3489990234375 -56.880001068115234,-99.45500183105469 C-57.50299835205078,-103.427001953125 -57.5629997253418,-107.46600341796875 -57.060001373291016,-111.45500183105469 C-56.94499969482422,-113.71900177001953 -56.66400146484375,-115.97200012207031 -56.220001220703125,-118.19499969482422 C-55.39799880981445,-121.35900115966797 -54.242000579833984,-124.4260025024414 -52.77000045776367,-127.34500122070312 C-51.33599853515625,-130.2449951171875 -48.909000396728516,-132.53399658203125 -45.93000030517578,-133.7949981689453 C-44.07400131225586,-134.5489959716797 -41.99599838256836,-134.5489959716797 -40.13999938964844,-133.7949981689453 C-39.03300094604492,-133.28199768066406 -38.05500030517578,-132.52699279785156 -37.279998779296875,-131.5850067138672 C-36.4630012512207,-130.81900024414062 -36.36800003051758,-129.55499267578125 -37.060001373291016,-128.6750030517578 C-37.83000183105469,-127.90499877929688 -38.79999923706055,-127.80500030517578 -40.310001373291016,-127.95500183105469 C-43.7599983215332,-128.4149932861328 -44.310001373291016,-126.42500305175781 -45.560001373291016,-124.75499725341797 C-46.590999603271484,-123.18800354003906 -47.44200134277344,-121.51100158691406 -48.099998474121094,-119.75499725341797 C-49.25,-117.32499694824219 -49.15999984741211,-115.63500213623047 -49.65999984741211,-112.99500274658203 C-50.21500015258789,-109.73799896240234 -50.323001861572266,-106.4209976196289 -49.97999954223633,-103.13500213623047 C-49.88999938964844,-100.06400299072266 -48.66400146484375,-97.13500213623047 -46.540000915527344,-94.91500091552734 C-45.98099899291992,-94.26599884033203 -45.349998474121094,-93.68299865722656 -44.65999984741211,-93.17500305175781 C-44.65999984741211,-93.17500305175781 -44.58000183105469,-93.18499755859375 -44.58000183105469,-93.18499755859375z"></path></g><g opacity="1" transform="matrix(1,0,0,1,0,0)"><path fill="rgb(1,1,1)" fill-opacity="1" d=" M1.6200000047683716,-43.07500076293945 C1.690000057220459,-40.35499954223633 3.009999990463257,-24.125 3.309999942779541,-19.78499984741211 C3.5399999618530273,-16.594999313354492 3.5899999141693115,-14.944999694824219 3.819999933242798,-11.78499984741211 C3.880000114440918,-10.78499984741211 4.190000057220459,-7.385000228881836 4.340000152587891,-6.425000190734863 C4.336999893188477,-5.75600004196167 4.294000148773193,-5.0879998207092285 4.210000038146973,-4.425000190734863 C4.202000141143799,-3.0199999809265137 3.2890000343322754,-1.7799999713897705 1.9500000476837158,-1.3550000190734863 C0.75,-0.9990000128746033 -0.5370000004768372,-1.0839999914169312 -1.6799999475479126,-1.5950000286102295 C-2.7139999866485596,-1.9490000009536743 -3.4509999752044678,-2.86899995803833 -3.569999933242798,-3.9549999237060547 C-3.75,-4.954999923706055 -3.7699999809265137,-5.954999923706055 -3.869999885559082,-6.954999923706055 C-4.440000057220459,-12.175000190734863 -4.980000019073486,-26.584999084472656 -5.309999942779541,-28.625 C-5.800000190734863,-31.684999465942383 -5.480000019073486,-35.07500076293945 -5.809999942779541,-38.17499923706055 C-5.920000076293945,-39.23500061035156 -5.28000020980835,-43.48500061035156 -7.460000038146973,-43.3650016784668 C-7.929999828338623,-43.474998474121094 -8.460000038146973,-43.415000915527344 -8.890000343322754,-43.48500061035156 C-10.593999862670898,-43.79100036621094 -11.937999725341797,-45.108001708984375 -12.279999732971191,-46.80500030517578 C-12.640000343322754,-48.19499969482422 -11.84000015258789,-50.584999084472656 -10.390000343322754,-50.935001373291016 C-7.86899995803833,-51.194000244140625 -5.333000183105469,-51.284000396728516 -2.799999952316284,-51.20500183105469 C-1.1299999952316284,-51.05500030517578 1.8899999856948853,-50.974998474121094 3.559999942779541,-50.834999084472656 C4.199999809265137,-50.834999084472656 4.829999923706055,-50.67499923706055 5.460000038146973,-50.57500076293945 C6.460000038146973,-50.415000915527344 7.03000020980835,-49.494998931884766 7.590000152587891,-48.57500076293945 C8.529999732971191,-47.06100082397461 8.086000442504883,-45.07400131225586 6.590000152587891,-44.10499954223633 C5.739999771118164,-43.6150016784668 2.7200000286102295,-43.564998626708984 1.6200000047683716,-43.07500076293945z"></path></g><g opacity="1" transform="matrix(1,0,0,1,0,0)"><path fill="rgb(1,1,1)" fill-opacity="1" d=" M50.209999084472656,-7.074999809265137 C49.249000549316406,-8.449999809265137 47.69599914550781,-9.291000366210938 46.02000045776367,-9.345000267028809 C45.869998931884766,-9.944999694824219 44.61000061035156,-24.424999237060547 44.349998474121094,-29.604999542236328 C44.15999984741211,-33.21500015258789 43.560001373291016,-36.79499816894531 43.20000076293945,-40.39500045776367 C42.91999816894531,-41.41899871826172 42.941001892089844,-42.50199890136719 43.2599983215332,-43.51499938964844 C43.779998779296875,-43.64500045776367 44.31999969482422,-43.724998474121094 44.81999969482422,-43.89500045776367 C45.34600067138672,-44.069000244140625 45.8489990234375,-44.30400085449219 46.31999969482422,-44.595001220703125 C47.433998107910156,-45.292999267578125 47.861000061035156,-46.707000732421875 47.31999969482422,-47.904998779296875 C47.02199935913086,-49.0359992980957 46.15299987792969,-49.928001403808594 45.029998779296875,-50.255001068115234 C43.683998107910156,-50.61800003051758 42.292999267578125,-50.78300094604492 40.900001525878906,-50.744998931884766 C39.130001068115234,-50.744998931884766 37.36000061035156,-51.04499816894531 35.58000183105469,-51.165000915527344 C34.96099853515625,-51.196998596191406 34.34000015258789,-51.132999420166016 33.7400016784668,-50.974998474121094 C31.559999465942383,-50.404998779296875 30.6200008392334,-47.474998474121094 31.899999618530273,-45.44499969482422 C32.7760009765625,-44.00600051879883 34.27399826049805,-43.05799865722656 35.95000076293945,-42.8849983215332 C36.06999969482422,-42.26499938964844 36.189998626708984,-41.8849983215332 36.22999954223633,-41.435001373291016 C36.61000061035156,-36.435001373291016 36.95000076293945,-31.434999465942383 37.369998931884766,-26.434999465942383 C37.52000045776367,-24.665000915527344 38.5,-14.125 38.709999084472656,-11.574999809265137 C38.790000915527344,-10.305000305175781 38.81999969482422,-9.154999732971191 38.790000915527344,-8.345000267028809 C38.790000915527344,-8.28499984741211 38.790000915527344,-8.21500015258789 38.790000915527344,-8.175000190734863 C38.27199935913086,-8.041000366210938 37.762001037597656,-7.880000114440918 37.2599983215332,-7.695000171661377 C36.74700164794922,-7.480000019073486 36.257999420166016,-7.211999893188477 35.79999923706055,-6.894999980926514 C34.71500015258789,-6.13700008392334 34.349998474121094,-4.698999881744385 34.939998626708984,-3.515000104904175 C35.305999755859375,-2.4100000858306885 36.2239990234375,-1.5789999961853027 37.36000061035156,-1.3250000476837158 C38.72600173950195,-1.0579999685287476 40.124000549316406,-0.9909999966621399 41.5099983215332,-1.125 C43.279998779296875,-1.274999976158142 45.06999969482422,-1.065000057220459 46.84000015258789,-1.0750000476837158 C47.46200180053711,-1.0920000076293945 48.07899856567383,-1.2000000476837158 48.66999816894531,-1.3949999809265137 C50.83000183105469,-2.1549999713897705 51.619998931884766,-5.144999980926514 50.209999084472656,-7.074999809265137z"></path></g></g></g></svg>