<svg id="Laag_1" data-name="Laag 1" xmlns="http://www.w3.org/2000/svg" viewBox="0 0 278.75 115.31"><defs><style>.cls-1{fill:#fff;}</style></defs><title>Logo-ZUID-Creatives-White-Transparent</title><path class="cls-1" d="M492.68,448.5c1.75,0,3.47,0,5.22.13s3.68.36,5.52.54,3.72.28,5.58.37,4.73,0,6.56.23c.73.09,1.19.34,1.84-.19s.89-.9,1.73-.85a2.52,2.52,0,0,1,2.54,1.7,14.48,14.48,0,0,1,.18,2.08c.09.94-.25,3-.16,3.91.18,1.84-.05,2.05,0,4.07.08,1.78,0,3.1,0,4.86s-.08,3.78-.12,5.68c0,.89-.08,1.54-.19,3.52a3.56,3.56,0,0,1-3.84,3.38c-1.5-.13-1.83-.21-3.27-.3-1.81-.11-3.62-.19-5.42-.32a74.15,74.15,0,0,0-8.15-.52c-3.29,0-2.44.6-7.9.16-1.87-.16-4.79-.17-6.66-.23s-4.6.3-6.46.22-12.25.26-14.13.13a41,41,0,0,0-6.1-.24c-.77.06-2.38-1.85-2.62-2.08-1.07-1,1.16-6,1.75-7.59,1.2-3.38,2.08-6.44,3.35-9.8s2.25-7,3.27-10.49a30.58,30.58,0,0,1,2-5.08A27.45,27.45,0,0,0,469,437c1-3.51,5-13.86,5.63-15.61s1.29-2.73,1.86-4.41c.25-.72,1.56-3,1.64-3.34s.64-1.6.69-2a7.41,7.41,0,0,1,.76-2.09c1.1-2.26,1.24-4.56,1.76-6.08,1.1-3.2,1.51-3.66,2.14-5.6a67.83,67.83,0,0,0,2.42-6.39c-6.19-.19-3.07-.94-7.31-.54-1.43.13-5-.57-10.43-.5a53.5,53.5,0,0,0-5.36.33c-.7.1-1.13.4-1.89.21-.95-.23-2.4-.2-2.47-2.21,0-.4,0-.8,0-1.21,0-.9,0-1.8-.06-2.7-.16-3.44-.92-5.05-.63-8.49a44.25,44.25,0,0,0,.1-5.4,22.6,22.6,0,0,0,0-3.87,2.8,2.8,0,0,1-.06-1.15c.16-.5.76-.69,1.21-.82a12.38,12.38,0,0,1,2.5-.46c1.74-.16,3.84-.39,5.58-.56,3.52-.35,6.64,0,10.17-.26s7.07-.53,10.6-.52c1.79,0,3.58.11,5.37.06s3.43-.28,5.15-.3,3.35-.16,5-.11c.8,0,1.59.23,2.4.19a82.56,82.56,0,0,1,13,.63,2.85,2.85,0,0,1,2.5,2.19,2.7,2.7,0,0,0,.31.72c.18.28.51.42.68.69.34.58-.18,1.47-.37,2-1.08,3.16-2.2,6.28-3.45,9.38-.56,1.38-1.31,2.68-1.86,4.07-1.78,4.47-4.87,12.42-5.56,13.91-1.84,4-.93,3.37-1.44,5s-2.16,6.24-3,9.44c-1.31,5-5.48,14.27-7.19,18-.69,1.53-.92,0-5.41,14.17C493.45,445.08,493.11,446.93,492.68,448.5Z" transform="translate(-456.58 -363.03)"/><path class="cls-1" d="M735.08,416.24a48.2,48.2,0,0,0-1.8-8.7,40.1,40.1,0,0,0-1.26-3.89c-.46-1.33-.69-2.72-1.24-4a43.34,43.34,0,0,0-3.48-7.43c-1.54-2.32-3.12-4.72-4.88-6.89a54.35,54.35,0,0,0-5.25-6.29c-2-1.8-2.52-3.61-5-4.8-.6-.29-1.22-.56-1.82-.86s-1.11-.7-1.7-1a43.44,43.44,0,0,0-4.24-1.75c-2.77-1.07-5.64-1.68-8.47-2.56a11.14,11.14,0,0,1-1.61-.83,9,9,0,0,0-2-.58c-1.51-.34-3-.67-4.54-1q-4.54-.89-9.12-1.57c-3-.47-6.1-.58-9.18-.8s-6-.15-9-.12a62.06,62.06,0,0,0-8.94.59,6.85,6.85,0,0,0-1.83.42c-.68.32-.44,1.17-.79,1.5s-1.48.29-2,.46a1,1,0,0,0-.75,1.08q.1,8.92.56,17.84c.15,2.94-.09,5.9-.22,8.85-.11,2.63-.14,3.6-.15,4.41a38.53,38.53,0,0,0,.12,4.3c.55,5.67,0,7.41,0,8.88a81.88,81.88,0,0,1,.28,8.74c-.13,3.07.09,6.15.25,9.22s.33,5.94.57,8.89c.12,1.47.28,2.94.39,4.41s.13,2.94.31,4.41c.34,2.93.77,5.84,1.08,8.77s.37,5.68.82,8.5a41.12,41.12,0,0,1,.19,4.3c0,.55.2,2.28.2,2.54a1.4,1.4,0,0,0,.56,1.22c.36.53.31,2.24.43,2.89s1,1,2.06,1.07a12.15,12.15,0,0,1,2.09,0,11.41,11.41,0,0,0,2.19.12c2.6.15,4.78,0,6.43.05,5.68.3,2.68.51,13,.48a118.9,118.9,0,0,0,14.09-.77,38.23,38.23,0,0,0,4.85-1c1.45-.29,3.31-1,4.73-1.4a29,29,0,0,0,4-1.55,52.45,52.45,0,0,0,6.81-4c1.22-.74,2.48-1.4,3.7-2.13a18.44,18.44,0,0,0,3.25-2.58,58,58,0,0,0,5.45-6.56,54.4,54.4,0,0,0,4.79-7.28,42,42,0,0,0,3.53-7.54,66.47,66.47,0,0,0,2.71-17.38C735.41,422,735.24,419.14,735.08,416.24ZM693.6,448.93a99.76,99.76,0,0,0-10.52.08c-2.49.24-7,.32-8.19.47-.33,0-.34,0-.41-.41a26.86,26.86,0,0,1-.17-3.48c-.09-2.15-.06-4.26,0-6.4.09-4-.27-8-.35-12a100.32,100.32,0,0,0-.59-12.86,106.33,106.33,0,0,1-.87-12.73c-.1-3.28-.44-6.18-.37-9.47,0-.83-.06-1.28.33-1.52a3,3,0,0,1,1.34-.21c1.21-.09,2.42-.15,3.63-.21,1.49-.07,3-.1,4.45-.07,2.29,0,4.59-.08,6.87.14a54,54,0,0,0,8.88.06c1.38-.22,1.28,1.3,1.19,2.69-.07,1.14-.08,2-.09,2.7a35.78,35.78,0,0,0,.24,6.12,27.93,27.93,0,0,1,.22,5.56c-.09,2.42-.16,4.84-.16,7.27s-.11,5,0,7.44.23,5,.36,7.55.18,4.95.36,7.41c.07,1,.27,2,.41,2.93a20.85,20.85,0,0,1,.33,4.53c-.07,1.29.18,1.85-.53,3.28-.19.39-.56.46-1,.54A29,29,0,0,1,693.6,448.93Z" transform="translate(-456.58 -363.03)"/><path class="cls-1" d="M611.4,363.64a33.41,33.41,0,0,0,3.46-.3,45.09,45.09,0,0,1,7.35.05c2.4.1,4.77-.2,7.16-.25,1.22,0,2.38.31,3.59.3,1.68,0,1.68,0,2,1.14.49,1.9,1.27.89,1.37,2,0,.45.12,1.92.12,2.43a9,9,0,0,0,.18,1.64,29.17,29.17,0,0,1,.2,3.37c0,1.2.06,2.4.07,3.6a30.86,30.86,0,0,0,.13,3.6,24.85,24.85,0,0,1,.19,3.55c-.05,2.47.11,4.93.09,7.39s0,4.95.18,7.44.12,4.92.14,7.39-.06,4.79,0,7.17c0,1.21.14,2.41.25,3.62s.09,2.39.14,3.59c.18,4.82.36,9.65.67,14.46.33,5,.74,9.95.85,14.94s.51,9.81.8,14.72c.07,1.23.09,2.46.18,3.68s-.2,1.76,0,2.94a7.52,7.52,0,0,1-.29,2.41c-.18.45,0,.65-.37.93a4.46,4.46,0,0,1-1.91.48c-.7.08-4.58-.26-6.29-.43-1.16-.11-.14.1-2.11.13-1.22,0-4.42,0-6.23.19-4.19.49-8.57.22-12.28.59a1.27,1.27,0,0,1-1.05-.31,3,3,0,0,1-.73-1.84c0-1,.56-1,.65-2,0-.63.12-1.81.11-2.43-.06-2.42.19-4.84.21-7.26s.31-4.75.19-7.14,0-4.76-.09-7.14-.38-5-.52-7.55,0-4.94-.15-7.4-.27-4.79-.29-7.2c0-1.08-.31-2.09-.27-3.16a32.67,32.67,0,0,1,.12-3.57,24.49,24.49,0,0,0,.07-3.43c0-1.26,0-2.51,0-3.77,0-4.91-.1-9.84-.26-14.75-.08-2.43-.64-4.78-.9-7.18a41.76,41.76,0,0,1-.41-7.32c.08-1.18.17-5.86.17-7,0-3.64.24-5.23-.1-7.08-.11-.59-.07-2.69-.09-3.12C607.58,363.43,608.12,363.69,611.4,363.64Z" transform="translate(-456.58 -363.03)"/><path class="cls-1" d="M563.34,390c.6,0,1.21-1.54,1.22-2.26,0-.46.05-1,0-1.45,0-1-1.26-3-1.77-2.82C562.16,384,562.76,389.9,563.34,390Z" transform="translate(-456.58 -363.03)"/><path class="cls-1" d="M549.41,411.9c-.65.38-.92,5.44-.57,6.29a4.76,4.76,0,0,0,1.58-.06c.14,0,.35-.12.36-.27a23,23,0,0,0-.78-5.74A.41.41,0,0,0,549.41,411.9Z" transform="translate(-456.58 -363.03)"/><path class="cls-1" d="M600.66,397.88c-.4-6.26-.85-12.54-1.07-18.81-.07-2.07-.2-4.13-.28-6.2s-.07-3.88-.32-5.8c-.07-.58-.33-2.18-.41-2.37s0-.29-.2-.29c-1.48,0-.1-.39-5-.27-3.09.08-6.18.08-9.27,0-6.37-.12-12.75-.25-19.13-.19-3.13,0-6.25.3-9.38.32s-6.25-.19-9.37-.32-6.22-.08-9.36.08a32.6,32.6,0,0,1-4.52-.44c-.26,0-.5.81-.65,1.05a10.8,10.8,0,0,0-1.53,2.24c-.29.66-.27,4.31-.27,6.4,0,1,0,2,.06,2.95a34.3,34.3,0,0,1,.25,3.51c0,1.54-.21,3.08-.14,4.62s.08,3.22,0,4.84c-.11,3.17-.5,6.33-.61,9.5-.06,1.62,0,3.24-.06,4.85s-.21,3.08-.17,4.61a41,41,0,0,1-.34,4.56c-.16,1.6-.28,3.2-.39,4.8-.2,2.95-.16,5.86-.14,8.82,0,1.49-.09,3-.06,4.49s.17,3.17.19,4.75c.05,3.08-.37,6.13-.09,9.21a45.21,45.21,0,0,0,5.08,16.33,22.82,22.82,0,0,0,4.64,6.22,35.28,35.28,0,0,0,5.1,4.36,37,37,0,0,0,5.85,3.15,49.81,49.81,0,0,0,8.29,2.42,43.67,43.67,0,0,0,9,1,31.2,31.2,0,0,0,7.89-.73,41,41,0,0,0,10.95-4.79,22.91,22.91,0,0,0,5.65-5.06,53.15,53.15,0,0,0,3.42-4.91c1-1.92,2.11-3.76,3-5.76a22.26,22.26,0,0,0,.72-2.23c.3-1,.69-2.05,1-3.09a41.4,41.4,0,0,0,1.06-7.68,29.92,29.92,0,0,0,.31-4.11c-.05-1.61-.16-3.22-.25-4.82s.14-3,.19-4.5a37,37,0,0,1,.3-4.47,34.87,34.87,0,0,0,.46-4.56c0-1.62.05-3.24.05-4.85C601.22,410.48,601.07,404.16,600.66,397.88ZM546,389.19a15.14,15.14,0,0,1,.28-2.22,14.91,14.91,0,0,1,1.13-3,4.49,4.49,0,0,1,2.26-2.13,2.55,2.55,0,0,1,1.9,0,2.58,2.58,0,0,1,.94.73.71.71,0,0,1,.08,1,1.23,1.23,0,0,1-1.08.23c-1.13-.15-1.31.51-1.72,1.06a8.25,8.25,0,0,0-.84,1.65,7.56,7.56,0,0,0-.51,2.22,11.83,11.83,0,0,0-.11,3.25,4.44,4.44,0,0,0,1.75,3.28h0a1.22,1.22,0,0,0,1.56-.29l0-.05a1.23,1.23,0,0,1,1-.48,1,1,0,0,1,1,1.44,3.14,3.14,0,0,1-1.73,2.19,2.87,2.87,0,0,1-1.82.23,3.89,3.89,0,0,1-2.12-1.31,9.55,9.55,0,0,1-1.63-2.71,7.75,7.75,0,0,1-.27-1.08A14.12,14.12,0,0,1,546,389.19Zm8.29,47.17c-.18,1.29-.28,2.59-.54,3.86-.37,1.8-.51,3.5-.81,5.32-.18,1.11-.27,2.24-.39,3.35-.08.69-.42,2.47-.46,2.61a1.49,1.49,0,0,1-.81,1.09l-.46.18a1.11,1.11,0,0,1-1-.07,2,2,0,0,1-.79-1.45c-.35-1.72-.81-3.41-1.12-5.14-.28-1.48-.61-2.93-.93-4.39-.25-1.09-.57-2.17-.85-3.25-.11-.42-.23-.83-.31-1.25a.92.92,0,0,1,.77-1.23,1.42,1.42,0,0,1,1.71,1.2c.41,1.53,2,10.24,2.18,10.38.11-.09.61-7.23,1.47-11.16.21-.69.22-1.34,1-1.32a3.1,3.1,0,0,1,.93.24A1,1,0,0,1,554.26,436.36Zm-1.09-11.06-.07,0c-1.07.29-1.49-.37-1.66-1.18-.13-.57-.54-2-.64-2.58a2,2,0,0,0,0-.24c-.11-.51-.2-.61-.67-.61a4.54,4.54,0,0,0-.82.07c-.41.08-.52.2-.57.65-.08.81-.16,1.62-.21,2.43a1.67,1.67,0,0,1-1,1.54,1.34,1.34,0,0,1-1,0,.52.52,0,0,1-.35-.4,3.67,3.67,0,0,1-.11-.74,5.12,5.12,0,0,1,0-.67s.2-2,.34-3,.34-4.24.46-4.95c0,0,.68-4.54.92-5.18a2.18,2.18,0,0,1,1.45-1.33,2.36,2.36,0,0,1,1.46.34,1.19,1.19,0,0,1,.54.78c.22.8.42,1.61.61,2.43.14.56.25,1.14.37,1.71l.12.66c.2,1.3,1,5.11,1.26,6.05.07.27.59,2,.66,2.32A1.49,1.49,0,0,1,553.17,425.3Zm9.24-43.66a4.06,4.06,0,0,1,3.29,2,6.31,6.31,0,0,1,1,2.71,4.55,4.55,0,0,1-.56,3.09c-.08.14-.17.28-.24.43a1.33,1.33,0,0,0,0,1.36c.16.25.24.56.39.82a17.9,17.9,0,0,0,.9,1.67,23.4,23.4,0,0,1,1.31,2.29,3.42,3.42,0,0,1,.31.95.94.94,0,0,1-.37,1,1.49,1.49,0,0,1-2.15-.27c-.09-.13-.18-.27-.26-.41a30.23,30.23,0,0,1-1.93-3.65l-.1-.22-.19.09c0,.25,0,.5,0,.75,0,.56.06,2.36.07,2.93a1,1,0,0,1-.76,1.09,2,2,0,0,1-1.05,0,1.26,1.26,0,0,1-.84-1.08c0-.56-.16-4.39-.14-5.12,0-1.13-.07-2.27-.14-3.4-.1-1.55-.22-3.1-.33-4.66,0-.11,0-.23,0-.34A1.81,1.81,0,0,1,562.41,381.64Zm1.05,41.94c-.19-1.72-.36-6.46-.47-7.13-.16-1-.06-2.12-.17-3.14,0-.35.18-1.75-.54-1.71a3.73,3.73,0,0,0-.47,0,1.4,1.4,0,0,1-1.12-1.09c-.12-.46.15-1.25.63-1.36a17.87,17.87,0,0,1,2.49-.09c.55.05,1.55.07,2.1.12a6.17,6.17,0,0,1,.62.09c.34,0,.52.35.7.66a1.07,1.07,0,0,1-.33,1.47c-.28.16-1.27.17-1.63.33,0,.9.46,6.24.56,7.67.07,1.05.09,1.59.16,2.64,0,.32.13,1.45.17,1.77a4.82,4.82,0,0,1,0,.65,1.06,1.06,0,0,1-.74,1,1.78,1.78,0,0,1-1.2-.08.93.93,0,0,1-.62-.78C563.5,424.26,563.5,423.9,563.46,423.58Zm6.32,27.73a4.35,4.35,0,0,1-3.11,1.62,5,5,0,0,1-.95,0,1.48,1.48,0,0,1-1.26-1.24,14.24,14.24,0,0,1-.28-3.8c.05-1.88,0-3.76-.16-5.64-.1-1.4-.18-2.8-.27-4.21a3,3,0,0,1,.58-2.22c.6-.87,2.23-.71,2.48-.71a1.94,1.94,0,0,1,1.23.37,1,1,0,0,1-.18,1.67c-.4.18-1.1-.07-1.51.1a14.3,14.3,0,0,0,.21,4.42c.26.27.52.2.78.2.45,0,.91,0,1.37,0a1.37,1.37,0,0,1,.59.13,1,1,0,0,1,.36,1.51,1.56,1.56,0,0,1-.74.63c-.41.14-.82.28-1.23.39a1.65,1.65,0,0,0-.84.35,12.2,12.2,0,0,0,0,2.34c0,.83.17,1.65.28,2.47,0,.11.11.21.17.31a1.34,1.34,0,0,0,.91-.27,2.21,2.21,0,0,1,1.26-.21.57.57,0,0,1,.52.42A1.23,1.23,0,0,1,569.78,451.31ZM574.66,388c0-.8-.13-1.6-.2-2.4l-.21-2.58a2.25,2.25,0,0,1,0-.44c.13-.83.3-1,1.22-1a3.64,3.64,0,0,1,.59.21,2.28,2.28,0,0,0,.92.27c.48,0,1,.12,1.43.19a1.36,1.36,0,0,1,.83.49.93.93,0,0,1-.32,1.5,4.24,4.24,0,0,1-1.11.15c-.78,0-1.09-.08-1,1.21.09,1,.18,2.07.29,3.11.06.53.19.65.68.69.66.06,1.33.12,2,.16a.94.94,0,0,1,.75.45,1,1,0,0,1-.16,1.41,2.38,2.38,0,0,1-1.1.49,13.87,13.87,0,0,0-1.41.36.47.47,0,0,0-.35.52q.09,1,.21,1.95a2.23,2.23,0,0,0,.1.43c.09.27.27.38.5.28s.29-.16.44-.21a7.08,7.08,0,0,1,1-.28c.6-.1,1,.54,1,1a1.52,1.52,0,0,1-.47,1.09,3.68,3.68,0,0,1-1.93,1,5.12,5.12,0,0,1-1,.15,1.87,1.87,0,0,1-1.57-.5,1.71,1.71,0,0,1-.48-1.08c-.1-1.3-.24-2.61-.33-3.91C574.85,391.19,574.77,389.61,574.66,388Zm1.58,36.66a.86.86,0,0,1,.28-1.11,2.23,2.23,0,0,1,.48-.26,4.16,4.16,0,0,1,.5-.16s0,0,0-.06c0-.27,0-.64,0-1.06-.07-.84-.4-4.31-.44-4.89-.14-1.64-.25-3.29-.38-4.93a4.73,4.73,0,0,0-.09-.48,1.73,1.73,0,0,1-1.33-.84,1.22,1.22,0,0,1,.6-1.82,2.11,2.11,0,0,1,.61-.06c.58,0,1.16.15,1.75.14a4.48,4.48,0,0,1,1.36.16,1.08,1.08,0,0,1,.75.77.86.86,0,0,1-.34,1.09,2.5,2.5,0,0,1-.5.23,4.21,4.21,0,0,1-.51.12,1.9,1.9,0,0,0,0,1c.12,1.19.32,2.37.38,3.55.09,1.71.5,6.47.55,6.67a1.78,1.78,0,0,1,1.38.75,1.24,1.24,0,0,1-.5,1.86,2.16,2.16,0,0,1-.61.1c-.58,0-1.17-.06-1.75,0a4.86,4.86,0,0,1-1.37-.07A1.08,1.08,0,0,1,576.24,424.7Zm8,24.76a8.06,8.06,0,0,1-.84,1.59,5.69,5.69,0,0,1-2.17,1.66,3,3,0,0,1-2.52-.09,2.69,2.69,0,0,1-1.15-1.5,1.84,1.84,0,0,1,.16-1.74,3.09,3.09,0,0,1,.63-.62,2.57,2.57,0,0,1,.42.34,2.88,2.88,0,0,0,1.14.74.68.68,0,0,0,.79-.11,2.32,2.32,0,0,0,.88-1.78,3.53,3.53,0,0,0-.47-2c-.54-1-1.1-1.92-1.65-2.89a12,12,0,0,1-1.47-3.21,3,3,0,0,0-.19-.5,2.84,2.84,0,0,1-.25-1.26,2,2,0,0,1,.31-1,4.41,4.41,0,0,1,2-1.76,2.69,2.69,0,0,1,2.42.13,1,1,0,0,1,.29,1.46,1,1,0,0,1-.92.53c-.22,0-.44,0-.66,0-.5,0-.74.37-.71.92a3.69,3.69,0,0,0,.48,1.57,30.16,30.16,0,0,0,2.09,3.34,9.63,9.63,0,0,1,1,2,9.26,9.26,0,0,1,.58,1.83A3.52,3.52,0,0,1,584.22,449.46Z" transform="translate(-456.58 -363.03)"/><path class="cls-1" d="M550.42,418.13a4.76,4.76,0,0,1-1.58.06c-.35-.85-.08-5.91.57-6.29a.41.41,0,0,1,.59.22,23,23,0,0,1,.78,5.74C550.77,418,550.56,418.11,550.42,418.13Z" transform="translate(-456.58 -363.03)"/><path class="cls-1" d="M562.82,383.44c-.66.57-.06,6.46.52,6.53s1.21-1.54,1.22-2.26c0-.46.05-1,0-1.45C564.55,385.28,563.33,383.27,562.82,383.44Z" transform="translate(-456.58 -363.03)"/></svg>