<?xml version="1.0" encoding="UTF-8"?>
<svg width="201px" height="31px" viewBox="0 0 201 31" version="1.1" xmlns="http://www.w3.org/2000/svg" xmlns:xlink="http://www.w3.org/1999/xlink">
    <title>Group</title>
    <g id="Symbols" stroke="none" stroke-width="1" fill="none" fill-rule="evenodd">
        <g id="Menu" transform="translate(-12.000000, -15.000000)" fill-rule="nonzero">
            <g id="Group" transform="translate(12.000000, 15.000000)">
                <polygon id="Path" fill="#311656" points="5.26416907 19 9.91354467 5.87056367 14.5629203 19 20 19 12.987512 0 7.05091258 0 0 19"></polygon>
                <path d="M18.2417582,24 C15.8841159,25.7682292 12.9270729,26.625 9.97002997,26.625 C7.05294705,26.625 4.0959041,25.75 1.75824176,24 L0,28.4114583 C2.91708292,30.0885417 6.37362637,31 9.97002997,31 C13.5864136,31 17.0629371,30.0885417 20,28.4114583 L18.2417582,24 Z" id="Path" fill="#FC6165"></path>
                <path d="M23,17.9001669 L23,8 L27.4298357,8 L27.4298357,16.8360415 C27.4298357,19.0022969 28.9266751,20.1614335 30.8482933,20.1614335 C32.8305942,20.1614335 34.5701643,19.0022969 34.5701643,16.8360415 L34.5701643,8 L39,8 L39,23.6008389 L34.7724399,23.6008389 L34.6915297,21.8716351 C33.8217446,22.973765 32.0417193,24 29.5335019,24 C25.710493,24.0188882 23,21.6626104 23,17.9001669 Z" id="Path" fill="#311656"></path>
                <path d="M48.6451977,7.20785597 C51.180791,7.20785597 52.8135593,8.15057283 53.8508475,9.48608838 L53.8508475,0 L58,0 L58,23.6661211 L53.8508475,23.6661211 L53.7740113,21.9574468 C52.7175141,23.1947627 50.9694915,24 48.6451977,24 C44.1694915,24 41,20.4451718 41,15.5744681 C41,10.6841244 44.1694915,7.20785597 48.6451977,7.20785597 Z M45.2259887,15.5744681 C45.2259887,18.1276596 46.9932203,20.1505728 49.5096045,20.1505728 C51.9875706,20.1505728 53.7932203,18.1276596 53.7932203,15.5744681 C53.7932203,13.0016367 51.9875706,11.0769231 49.5096045,11.0769231 C46.9932203,11.0572831 45.2259887,12.9623568 45.2259887,15.5744681 Z" id="Shape" fill="#311656"></path>
                <path d="M63.4901186,0 C64.9525692,0 66,1.00990099 66,2.51485149 C66,3.98019802 64.972332,5.00990099 63.4901186,5.00990099 C62.0079051,5.00990099 61,4 61,2.51485149 C61,1.02970297 62.027668,0 63.4901186,0 Z M61.3557312,24 L61.3557312,7.72277228 L65.7035573,7.72277228 L65.7035573,24 L61.3557312,24 Z" id="Shape" fill="#311656"></path>
                <path d="M69,15.9813084 C69.0194884,11.2897196 72.4884287,8 77.2436054,8 C81.6479903,8 85,10.8224299 85,15.4953271 C85,16.0560748 84.9415347,16.635514 84.8440926,17.2336449 L73.2679659,17.2336449 C73.5797808,19.046729 75.5091352,20.2990654 77.5359318,20.2990654 C79.1144945,20.2990654 80.4786845,19.588785 81.5310597,18.1308411 L84.5712546,20.2990654 C83.0706456,22.6915888 80.2643118,24 77.4579781,24 C72.2935445,24 69,20.4485981 69,15.9813084 Z M81.0048721,14.4672897 C80.7904994,12.7476636 79.3288672,11.4392523 77.2825822,11.4392523 C75.1583435,11.4392523 73.5602923,12.7102804 73.3264312,14.4672897 L81.0048721,14.4672897 Z" id="Shape" fill="#311656"></path>
                <path d="M88,24 L88,8.32419547 L92.2329114,8.32419547 L92.3139241,10.135876 C93.1848101,9.0488677 94.9670886,8 97.4379747,8 C101.286076,8 104,10.3837902 104,14.1597139 L104,24 L99.564557,24 L99.564557,15.227652 C99.564557,13.0536353 98.0658228,11.8903456 96.121519,11.8903456 C94.1772152,11.8903456 92.435443,13.0727056 92.435443,15.227652 L92.435443,24 L88,24 Z" id="Path" fill="#311656"></path>
                <path d="M105,16.0092982 C105,11.5285719 108.785366,8 113.546341,8 C116.55122,8 119.517073,9.49357542 121,12.3687081 L117.741463,14.3476955 C116.804878,12.5740747 115.165854,11.7526082 113.62439,11.7526082 C111.04878,11.7526082 109.273171,13.6382472 109.273171,16.0653072 C109.273171,18.4550279 111.107317,20.3033275 113.565854,20.3033275 C115.302439,20.3033275 116.746341,19.5192004 117.839024,17.6522311 L120.921951,19.724567 C119.458537,22.5250209 116.453659,24 113.44878,24 C108.64878,24.0185963 105,20.4713547 105,16.0092982 Z" id="Path" fill="#311656"></path>
                <path d="M123,15.9813084 C123.019488,11.2897196 126.488429,8 131.243605,8 C135.64799,8 139,10.8224299 139,15.4953271 C139,16.0560748 138.941535,16.635514 138.844093,17.2336449 L127.267966,17.2336449 C127.579781,19.046729 129.509135,20.2990654 131.535932,20.2990654 C133.114495,20.2990654 134.478685,19.588785 135.53106,18.1308411 L138.571255,20.2990654 C137.070646,22.6915888 134.264312,24 131.457978,24 C126.293544,24 123,20.4485981 123,15.9813084 Z M135.004872,14.4672897 C134.790499,12.7476636 133.328867,11.4392523 131.282582,11.4392523 C129.158343,11.4392523 127.560292,12.7102804 127.326431,14.4672897 L135.004872,14.4672897 Z" id="Shape" fill="#311656"></path>
                <polygon id="Path" fill="#FC6165" points="157 2 157 4.42340792 145.832138 4.42340792 145.832138 11.5232358 155.51363 11.5232358 155.51363 13.9466437 145.832138 13.9466437 145.832138 24 143 24 143 2"></polygon>
                <path d="M161.482353,1 C162.364706,1 163,1.66215072 163,2.63590178 C163,3.60965284 162.364706,4.29127858 161.482353,4.29127858 C160.6,4.29127858 160,3.60965284 160,2.63590178 C160,1.66215072 160.6,1 161.482353,1 Z M162.682353,8.01100762 L162.682353,24 L160.282353,24 L160.282353,7.9915326 L162.682353,7.9915326 L162.682353,8.01100762 Z" id="Shape" fill="#FC6165"></path>
                <path d="M166,24 L166,8.32419547 L168.595789,8.32419547 L168.595789,10.6507747 C169.467368,8.83909416 171.021053,8 172.802105,8 C173.901053,8 174.715789,8.28605483 175,8.40047676 L174.734737,10.8033373 C174.298947,10.6317044 173.692632,10.4028605 172.688421,10.4028605 C170.604211,10.4028605 168.576842,11.7759237 168.576842,15.2848629 L168.576842,24 L166,24 Z" id="Path" fill="#FC6165"></path>
                <path d="M177.998507,19.1214953 C178.871642,20.6542056 180.462687,21.7196262 182.771642,21.7196262 C184.847761,21.7196262 186.322388,20.8785047 186.322388,19.5514019 C186.322388,18.1308411 185.235821,17.682243 182.538806,17.1028037 C179.143284,16.3738318 176.71791,15.364486 176.71791,12.411215 C176.71791,9.71962617 179.356716,8 182.655224,8 C185.526866,8 187.661194,9.34579439 188.592537,10.8411215 L186.78806,12.2803738 C186.031343,11.2149533 184.71194,10.2803738 182.655224,10.2803738 C180.637313,10.2803738 179.337313,11.1028037 179.337313,12.3551402 C179.337313,13.8317757 180.61791,14.2242991 183.314925,14.8598131 C186.749254,15.6635514 189,16.7102804 189,19.5514019 C189,22.2616822 186.147761,24 182.791045,24 C179.492537,24 177.144776,22.6542056 176,20.5420561 L177.998507,19.1214953 Z" id="Path" fill="#FC6165"></path>
                <path d="M190,9.6061706 L190,7.27041742 L192.848382,7.27041742 L192.848382,2 L195.359455,2 L195.359455,7.27041742 L200.437819,7.27041742 L200.437819,9.6061706 L195.378194,9.6061706 L195.378194,18.4700544 C195.378194,20.6261343 196.465077,21.5644283 198.039182,21.5644283 C198.882453,21.5644283 199.931857,21.3248639 200.662692,20.9255898 L201,23.261343 C200.344123,23.6606171 199.013629,24 197.758092,24 C194.797274,24 192.810903,22.2631579 192.810903,18.9092559 L192.810903,9.6061706 L190,9.6061706 L190,9.6061706 Z" id="Path" fill="#FC6165"></path>
            </g>
        </g>
    </g>
</svg>